<svg height="413pt" viewBox="0 0 413 413.184" width="413pt" xmlns="http://www.w3.org/2000/svg"><path d="m206.667969 413.183594c-14.027344 0-28.054688-5.335938-38.730469-16.015625l-151.824219-151.828125c-21.363281-21.355469-21.363281-56.109375 0-77.46875l151.824219-151.824219c10.347656-10.347656 24.097656-16.046875 38.730469-16.046875 14.632812 0 28.386719 5.699219 38.734375 16.046875l151.824218 151.824219c21.363282 21.359375 21.363282 56.113281 0 77.46875l-151.824218 151.828125c-10.679688 10.675781-24.707032 16.015625-38.734375 16.015625zm0-399.53125c-10.988281 0-21.308594 4.28125-29.074219 12.046875l-151.828125 151.828125c-16.035156 16.035156-16.035156 42.128906 0 58.160156l151.828125 151.828125c16.042969 16.035156 42.121094 16.027344 58.15625 0l151.824219-151.828125c16.035156-16.035156 16.035156-42.125 0-58.160156l-151.824219-151.828125c-7.769531-7.765625-18.09375-12.046875-29.082031-12.046875zm0 0"/><path d="m206.449219 410.824219c-15.734375 0-31.019531-6.160157-42.582031-17.734375l-14.136719-14.132813c-1.5-1.496093-2.21875-3.601562-1.945313-5.707031 2.320313-17.859375 18.476563-29.953125 37.191406-43.953125l2.640626-1.972656c24.25-18.195313 39.878906-45.535157 37.984374-66.488281-1.132812-12.632813-8.417968-22.390626-21.652343-29.003907-29.335938-14.667969-38.691407-32.789062-41.433594-45.164062h-37.945313c-2.652343 0-5.058593-1.535157-6.183593-3.933594s-.757813-5.226563.9375-7.265625l78.277343-93.96875c2.601563-3.113281 7.894532-3.113281 10.492188 0l78.28125 93.96875c1.691406 2.035156 2.058594 4.867188.933594 7.265625-1.121094 2.398437-3.53125 3.933594-6.179688 3.933594h-41.21875c3.972656 8.523437 12.761719 20.386719 32.085938 33.390625 14.207031 9.566406 22.3125 21.847656 24.078125 36.503906 2.746093 22.777344-10.078125 49.964844-38.132813 80.816406-5.179687 5.6875-10.472656 10.703125-15.144531 15.132813-17.867187 16.925781-26.027344 24.648437-13 44.835937 1.132813 1.769532 1.398437 3.957032.707031 5.941406-.6875 1.984376-2.253906 3.539063-4.242187 4.21875-6.527344 2.230469-13.207031 3.316407-19.8125 3.316407zm-44.457031-38.914063 11.527343 11.527344c10.730469 10.730469 25.601563 15.441406 40.25 13.152344-11.421875-24.574219 3.707031-38.90625 19.640625-53.992188 4.71875-4.472656 9.597656-9.09375 14.425782-14.40625 24.914062-27.390625 36.90625-51.59375 34.683593-69.992187-1.292969-10.691407-7.222656-19.457031-18.152343-26.8125-29.199219-19.65625-38.199219-38.152344-40.605469-50.210938-.398438-2.007812.117187-4.082031 1.414062-5.664062s3.230469-2.5 5.277344-2.5h36.101563l-63.707032-76.476563-63.707031 76.476563h29.246094c3.578125 0 6.546875 2.761719 6.8125 6.332031.644531 8.855469 6.03125 25.863281 34.855469 40.273438 22.105468 11.054687 28.054687 27.847656 29.144531 39.992187 2.328125 25.824219-15.109375 57.425781-43.398438 78.636719l-2.648437 1.984375c-15.441406 11.554687-27.917969 20.894531-31.160156 31.679687zm0 0"/></svg>