<?xml version="1.0" encoding="utf-8"?>
<!-- Generator: Adobe Illustrator 24.1.3, SVG Export Plug-In . SVG Version: 6.00 Build 0)  -->
<svg version="1.1" id="Слой_1" xmlns="http://www.w3.org/2000/svg" xmlns:xlink="http://www.w3.org/1999/xlink" x="0px" y="0px"
	 viewBox="0 0 101.72 100.14" enable-background="new 0 0 101.72 100.14" xml:space="preserve">
<g>
	<path fill="#FFFFFF" d="M46.77,97.13c0.49,1.19,0.97,2.38,1.45,3.57c16.09,0.75,32.3-6.07,42.91-19.73
		c17.32-22.31,13.27-54.56-9.04-71.88C75.06,3.63,67.05,0.31,58.83-1c0.16,1.19,0.3,2.38,0.42,3.57c7.32,1.33,14.44,4.38,20.71,9.25
		c20.8,16.15,24.59,46.22,8.43,67.03C78.15,92.04,62.3,98.37,46.77,97.13z"/>
	<circle fill="#B71828" cx="49.34" cy="49.16" r="43.62"/>
	<text transform="matrix(1 0 0 1 54.4827 104.558)"><tspan x="0" y="0" fill="#FFFFFF" font-family="'SegoeUI'" font-size="13.7254px"> </tspan><tspan x="-68.48" y="16.47" fill="#FFFFFF" font-family="'SegoeUI'" font-size="13.7254px">Расчет стоимости </tspan><tspan x="-26.28" y="32.94" fill="#FFFFFF" font-family="'SegoeUI'" font-size="13.7254px">ущерба </tspan></text>
	<path fill="#FFFFFF" d="M45.21,47.6c-1.26,0-2.49,0-3.73,0c0,1.26,0,2.48,0,3.74c1.28,0,2.5,0,3.73,0
		C45.21,50.08,45.21,48.84,45.21,47.6z"/>
	<path fill="#FFFFFF" d="M41.49,58.8c1.25,0,2.47,0,3.73,0c0-1.27,0-2.49,0-3.74c-1.26,0-2.49,0-3.73,0
		C41.49,56.32,41.49,57.56,41.49,58.8z"/>
	<path fill="#FFFFFF" d="M48.94,43.88c1.25,0,2.48,0,3.72,0c0-0.4,0-0.78,0-1.17c-1.24,0-2.46,0-3.72,0
		C48.94,43.11,48.94,43.49,48.94,43.88z"/>
	<path fill="#FFFFFF" d="M45.23,42.71c-1.26,0-2.5,0-3.74,0c0,0.4,0,0.79,0,1.17c1.26,0,2.49,0,3.74,0
		C45.23,43.46,45.23,43.09,45.23,42.71z"/>
	<path fill="#FFFFFF" d="M34.02,58.78c1.27,0,2.51,0,3.74,0c0-1.26,0-2.49,0-3.72c-1.26,0-2.49,0-3.74,0
		C34.02,56.31,34.02,57.53,34.02,58.78z"/>
	<path fill="#FFFFFF" d="M26.59,58.78c1.25,0,2.48,0,3.71,0c0-1.25,0-2.48,0-3.73c-1.24,0-2.46,0-3.71,0
		C26.59,56.32,26.59,57.55,26.59,58.78z"/>
	<path fill="#FFFFFF" d="M30.31,47.6c-1.25,0-2.48,0-3.71,0c0,1.27,0,2.5,0,3.75c1.25,0,2.47,0,3.71,0
		C30.31,50.09,30.31,48.85,30.31,47.6z"/>
	<path fill="#FFFFFF" d="M37.76,47.6c-1.26,0-2.49,0-3.73,0c0,1.26,0,2.5,0,3.75c1.25,0,2.48,0,3.73,0
		C37.76,50.09,37.76,48.85,37.76,47.6z"/>
	<path fill="#FFFFFF" d="M26.21,62.09c-1.37,0-2.1-0.74-2.1-2.11c0-5.3,0-10.59,0-15.89c0-5.27,0-10.54,0-15.82
		c0-1.4,0.73-2.13,2.12-2.13c8.93,0,17.87,0,26.8,0c1.39,0,2.12,0.73,2.12,2.13c0,6.28,0,12.56,0,18.84l1.22-2.11
		c0-3.36,0-6.71,0-10.07c0-2.27,0.01-4.55,0-6.82c-0.01-1.86-1.31-3.18-3.15-3.18c-9.06-0.01-18.11-0.01-27.17,0.01
		c-0.48,0-1.01,0.12-1.44,0.33c-1.21,0.59-1.72,1.62-1.71,2.95c0.01,10.59,0,21.19,0,31.78c0,0.17,0,0.35,0.02,0.52
		c0.08,0.82,0.43,1.49,1.05,2.04c0.47,0.42,1.05,0.61,1.64,0.75c6.73,0,13.45,0,20.18,0l0.7-1.22
		C39.73,62.09,32.97,62.09,26.21,62.09z"/>
	<path fill="#FFFFFF" d="M52.99,28.19c-8.91,0-17.82,0-26.73,0c-0.75,0-0.93,0.18-0.93,0.92c0,3.11,0,6.22,0,9.33
		c0,0.1-0.01,0.2,0,0.3c0.04,0.45,0.24,0.66,0.69,0.66c1.61,0.01,3.22,0.01,4.84,0c0.14,0,0.3-0.04,0.42-0.11
		c0.26-0.15,0.32-0.42,0.23-0.69c-0.1-0.32-0.37-0.42-0.68-0.42c-1.27,0-2.55,0-3.82,0c-0.13,0-0.27,0-0.42,0c0-2.94,0-5.84,0-8.75
		c8.7,0,17.38,0,26.08,0c0,2.91,0,5.81,0,8.75c-0.23,0-0.43,0-0.63,0c-6.11,0-12.22,0-18.33,0c-0.63,0-0.92,0.2-0.91,0.63
		c0.01,0.41,0.28,0.59,0.9,0.59c6.42,0,12.85,0,19.27,0c0.79,0,0.96-0.17,0.96-0.97c0-3.1,0-6.2,0-9.3
		C53.93,28.36,53.75,28.19,52.99,28.19z"/>
	<path fill="#FFFFFF" d="M53.21,46.36c-1.6,0-3.2,0-4.8,0c-0.49,0-0.7,0.21-0.72,0.71c-0.01,0.27,0,0.55,0,0.82
		c0,3.75,0,7.5,0,11.25c0,0.3,0.04,0.5,0.13,0.64l1.12-1.93c0-3.42,0-6.82,0-10.25c1.24,0,2.46,0,3.75,0c0,0.61-0.01,1.19,0,1.78
		c0.01,0.38,0.27,0.64,0.59,0.65c0.07,0,0.13-0.01,0.19-0.03l0.44-0.77c0.01-0.74,0.02-1.47,0-2.21
		C53.9,46.58,53.66,46.36,53.21,46.36z"/>
	<path fill="#FFFFFF" d="M30.71,53.81c-1.5,0-3,0-4.5,0c-0.67,0-0.88,0.21-0.88,0.87c0,1.51,0,3.02,0,4.54
		c0,0.61,0.22,0.82,0.84,0.83c0.76,0,1.52,0,2.29,0c0,0,0,0,0,0c0.76,0,1.52,0,2.29,0c0.62,0,0.81-0.19,0.81-0.8
		c0.01-1.54,0.01-3.07,0-4.61C31.55,54,31.34,53.81,30.71,53.81z"/>
	<path fill="#FFFFFF" d="M38.3,53.81c-1.6-0.01-3.19-0.01-4.79,0c-0.51,0-0.71,0.23-0.71,0.75c0,1.57-0.01,3.14,0,4.72
		c0,0.54,0.2,0.74,0.74,0.75c0.79,0.01,1.57,0,2.36,0c0,0,0,0,0,0c0.79,0,1.57,0.01,2.36,0c0.54-0.01,0.76-0.22,0.76-0.75
		c0.01-1.57,0.01-3.14,0-4.72C39.02,54.06,38.8,53.81,38.3,53.81z"/>
	<path fill="#FFFFFF" d="M26.19,52.59c1.53,0,3.07,0,4.6,0c0.54,0,0.76-0.21,0.76-0.74c0.01-1.58,0.01-3.17,0-4.75
		c0-0.52-0.22-0.72-0.74-0.73c-0.79-0.01-1.57,0-2.36,0c-0.76,0-1.52,0-2.28,0c-0.64,0-0.84,0.2-0.85,0.86c0,0.59,0,1.17,0,1.76
		c0,0.91,0,1.82,0,2.73C25.33,52.39,25.53,52.58,26.19,52.59z"/>
	<path fill="#FFFFFF" d="M33.55,52.58c1.57,0,3.14,0,4.72,0c0.5,0,0.75-0.23,0.76-0.72c0.01-1.6,0.01-3.19,0-4.79
		c0-0.47-0.25-0.71-0.73-0.71c-1.6,0-3.19,0-4.79,0c-0.48,0-0.7,0.23-0.7,0.72c-0.01,0.8,0,1.6,0,2.4c0,0.79,0,1.57,0,2.36
		C32.8,52.36,33.02,52.58,33.55,52.58z"/>
	<path fill="#FFFFFF" d="M46.46,54.62c0-0.59-0.2-0.8-0.77-0.81c-1.56-0.01-3.12-0.01-4.68,0c-0.54,0-0.77,0.24-0.77,0.79
		c0,1.56,0,3.12,0,4.68c0,0.53,0.22,0.76,0.75,0.76c1.58,0.01,3.17,0.01,4.75,0c0.52,0,0.72-0.21,0.72-0.73c0.01-0.79,0-1.57,0-2.36
		c0,0,0,0,0,0C46.46,56.16,46.46,55.39,46.46,54.62z"/>
	<path fill="#FFFFFF" d="M40.99,52.58c1.57,0,3.14,0,4.72,0c0.53,0,0.75-0.22,0.75-0.75c0-0.77,0-1.55,0-2.32c0-0.8,0-1.6,0-2.4
		c0-0.54-0.21-0.75-0.74-0.75c-1.57,0-3.14,0-4.72,0c-0.52,0-0.76,0.23-0.76,0.75c-0.01,1.57-0.01,3.14,0,4.72
		C40.23,52.35,40.47,52.58,40.99,52.58z"/>
	<path fill="#FFFFFF" d="M53.92,42.25c-0.01-0.59-0.21-0.78-0.8-0.79c-0.77-0.01-1.55,0-2.32,0c-0.79,0-1.57-0.01-2.36,0
		c-0.53,0.01-0.73,0.2-0.74,0.72c-0.01,0.74-0.01,1.47,0,2.21c0.01,0.51,0.23,0.74,0.73,0.74c1.57,0.01,3.15,0.01,4.72,0
		c0.55,0,0.76-0.23,0.77-0.78C53.93,43.65,53.93,42.95,53.92,42.25z"/>
	<path fill="#FFFFFF" d="M40.91,45.13c1.62,0.01,3.25,0.01,4.87,0c0.47,0,0.67-0.24,0.67-0.71c0.01-0.72,0-1.45,0-2.17
		c0-0.57-0.19-0.77-0.76-0.77c-0.77-0.01-1.55,0-2.32,0c-0.8,0-1.6-0.01-2.4,0c-0.51,0-0.74,0.22-0.74,0.73
		c-0.01,0.74-0.01,1.47,0,2.21C40.24,44.87,40.46,45.13,40.91,45.13z"/>
	<path fill="#FFFFFF" d="M51.15,35.4c0.03-0.54,0.01-1.07,0.01-1.61c0,0,0,0-0.01,0c0-0.56,0.02-1.12-0.01-1.68
		c-0.04-0.67-0.51-1.15-1.04-1.12c-0.51,0.02-0.96,0.51-0.98,1.13c-0.03,1.1-0.03,2.2,0,3.29c0.02,0.69,0.46,1.14,1.02,1.14
		C50.71,36.55,51.12,36.1,51.15,35.4z"/>
	<path fill="#FFFFFF" d="M46.24,35.43c0.03-0.54,0.01-1.07,0.01-1.61c0,0,0,0-0.01,0c0-0.56,0.02-1.12-0.01-1.68
		c-0.04-0.67-0.51-1.15-1.04-1.12c-0.51,0.02-0.96,0.51-0.98,1.13c-0.03,1.1-0.03,2.2,0,3.29c0.02,0.69,0.46,1.14,1.02,1.14
		C45.8,36.58,46.21,36.14,46.24,35.43z"/>
	<path fill="#FFFFFF" d="M42.13,35.43c0.03-0.54,0-1.07,0-1.61c0,0,0,0-0.01,0c0-0.56,0.02-1.12-0.01-1.68
		c-0.04-0.67-0.51-1.15-1.04-1.12c-0.51,0.02-0.96,0.51-0.98,1.13c-0.03,1.1-0.03,2.2,0,3.29c0.02,0.69,0.46,1.14,1.02,1.14
		C41.69,36.58,42.09,36.14,42.13,35.43z"/>
	<polygon fill="#FFFFFF" points="61.35,50.13 62.08,59.79 64.52,59.79 65.25,50.13 65.29,48.75 61.31,48.75 	"/>
	<path fill="#FFFFFF" d="M63.3,62.16c-0.81,0-1.55,0.65-1.55,1.55c0,0.79,0.56,1.53,1.58,1.53c0.9,0,1.53-0.74,1.53-1.53
		C64.85,62.86,64.11,62.16,63.3,62.16z"/>
	<path fill="#FFFFFF" d="M79.45,65.13L65.77,41.46c-0.25-0.45-0.62-0.82-1.06-1.07c-0.65-0.38-1.42-0.48-2.15-0.28
		c-0.73,0.2-1.34,0.67-1.72,1.32l-2.93,5.07l-1.22,2.11l-1.23,2.13l-0.44,0.77l-4.53,7.85l-1.12,1.93l-1.33,2.31l-0.7,1.22
		l-0.09,0.15c-0.32,0.47-0.49,1.02-0.49,1.59c0,1.57,1.28,2.85,2.85,2.85H63.3l13.69,0c0.5,0,0.99-0.13,1.42-0.38
		c0.66-0.38,1.13-0.99,1.32-1.73C79.93,66.55,79.83,65.79,79.45,65.13z M78.11,66.86c-0.08,0.3-0.27,0.55-0.54,0.71
		c-0.18,0.11-0.38,0.16-0.59,0.16H49.61c-0.65,0-1.17-0.53-1.17-1.17c0-0.24,0.07-0.46,0.23-0.71l0.6-1.04l0.7-1.22l1.19-2.06
		l0.72-1.24l2.36-4.08l1.24-2.14l1.22-2.12l1.22-2.11l4.38-7.58C62.45,42,62.7,41.81,63,41.73c0.1-0.03,0.2-0.04,0.3-0.04
		c0.2,0,0.4,0.05,0.58,0.16c0.18,0.1,0.33,0.26,0.43,0.44L78,65.97C78.15,66.24,78.2,66.55,78.11,66.86z"/>
</g>
</svg>
