<?xml version="1.0" encoding="utf-8"?>
<!-- Generator: Adobe Illustrator 24.1.3, SVG Export Plug-In . SVG Version: 6.00 Build 0)  -->
<svg version="1.1" id="Слой_1" xmlns="http://www.w3.org/2000/svg" xmlns:xlink="http://www.w3.org/1999/xlink" x="0px" y="0px"
	 viewBox="0 0 563 203" style="enable-background:new 0 0 563 203;" xml:space="preserve">
<style type="text/css">
	.st0{fill:#B71828;}
	.st1{fill:#FFFFFF;}
	.st2{fill:none;}
	.st3{font-family:'SegoeUI';}
	.st4{font-size:8.0335px;}
	.st5{font-size:8.2532px;}
	.st6{font-size:9.5178px;}
	.st7{font-size:7.7218px;}
	.st8{font-size:8.376px;}
	.st9{font-size:9.7858px;}
	.st10{font-size:11.4256px;}
	.st11{font-size:9.2076px;}
	.st12{font-size:7.4322px;}
	.st13{font-size:5.2375px;}
	.st14{font-size:5.2272px;}
	.st15{font-size:8.5203px;}
	.st16{font-size:6.1389px;}
	.st17{font-size:7.8808px;}
	.st18{font-size:8.3052px;}
	.st19{font-size:9.8241px;}
	.st20{font-size:6.8731px;}
	.st21{font-size:6.9517px;}
	.st22{font-size:6.8671px;}
	.st23{font-size:6.9932px;}
</style>
<g id="Car">
	<rect x="-0.24" y="0" class="st0" width="563.48" height="203.29"/>
	<g>
		<path class="st1" d="M474.08,73.07l-0.63-0.2l1.07-3.27l-2.01-0.63l-1.07,3.27l-0.63-0.2l1.24-3.79l3.27,1.02L474.08,73.07z"/>
		<path class="st1" d="M476.13,73.42l-0.01-0.01l-1.28,2.05l-0.57-0.33l3.1-4.96l0.57,0.33l-0.37,0.6l0.01,0.01
			c0.56-0.29,1.11-0.27,1.65,0.04c0.46,0.27,0.72,0.63,0.78,1.08c0.07,0.45-0.06,0.94-0.38,1.45c-0.36,0.57-0.78,0.94-1.29,1.11
			c-0.5,0.17-1,0.11-1.5-0.18C476.38,74.35,476.14,73.95,476.13,73.42z M476.97,72.04l-0.3,0.47c-0.18,0.28-0.23,0.57-0.16,0.88
			c0.07,0.31,0.25,0.55,0.54,0.72c0.34,0.2,0.69,0.23,1.05,0.1c0.35-0.14,0.67-0.43,0.95-0.88c0.24-0.38,0.33-0.73,0.28-1.05
			c-0.05-0.32-0.23-0.57-0.54-0.76c-0.33-0.19-0.66-0.24-1-0.14C477.45,71.49,477.18,71.71,476.97,72.04z"/>
		<path class="st1" d="M480.43,77.34c-0.44-0.42-0.65-0.88-0.64-1.39c0.01-0.51,0.24-0.98,0.68-1.42c0.49-0.47,1-0.72,1.54-0.72
			c0.54-0.01,1.05,0.21,1.51,0.65c0.44,0.42,0.65,0.88,0.63,1.37c-0.02,0.49-0.26,0.97-0.73,1.43c-0.46,0.45-0.96,0.68-1.51,0.7
			C481.37,77.97,480.88,77.76,480.43,77.34z M483.1,74.79c-0.3-0.29-0.65-0.42-1.02-0.39c-0.38,0.03-0.75,0.22-1.1,0.56
			c-0.34,0.33-0.52,0.68-0.54,1.05c-0.02,0.36,0.12,0.69,0.42,0.97c0.31,0.29,0.64,0.42,1,0.39c0.36-0.03,0.72-0.22,1.07-0.57
			c0.36-0.35,0.56-0.7,0.59-1.05C483.54,75.4,483.41,75.08,483.1,74.79z"/>
		<path class="st1" d="M482.55,79.44l3.47-2.13l0.98,1.47c0.22,0.33,0.32,0.64,0.3,0.92c-0.02,0.28-0.17,0.51-0.43,0.67
			c-0.45,0.28-0.87,0.23-1.25-0.14c0.27,0.56,0.18,0.98-0.29,1.27c-0.28,0.17-0.59,0.21-0.92,0.12c-0.33-0.09-0.6-0.3-0.81-0.61
			L482.55,79.44z M484.46,79.03l-1.07,0.66l0.62,0.93c0.29,0.44,0.62,0.54,0.98,0.32c0.35-0.22,0.36-0.57,0.04-1.06L484.46,79.03z
			 M485.91,78.14l-0.98,0.6l0.54,0.81c0.29,0.43,0.61,0.54,0.96,0.33c0.3-0.19,0.32-0.47,0.06-0.86L485.91,78.14z"/>
		<path class="st1" d="M487.73,85.4l-1.03-2.64c-0.43,0.16-0.72,0.39-0.87,0.69c-0.15,0.3-0.15,0.63-0.01,1.01
			c0.16,0.42,0.46,0.76,0.88,1.01l-0.58,0.21c-0.37-0.24-0.67-0.63-0.88-1.17c-0.21-0.53-0.19-1.01,0.04-1.43s0.67-0.75,1.31-0.98
			c0.6-0.21,1.16-0.22,1.66-0.03c0.51,0.2,0.86,0.54,1.05,1.03c0.19,0.49,0.17,0.93-0.05,1.31c-0.22,0.38-0.63,0.68-1.21,0.88
			L487.73,85.4z M488.01,84.6c0.36-0.13,0.6-0.31,0.74-0.55c0.14-0.23,0.15-0.5,0.03-0.79c-0.11-0.28-0.31-0.48-0.59-0.61
			c-0.29-0.12-0.61-0.15-0.96-0.07L488.01,84.6z"/>
		<path class="st1" d="M486.85,87.5l0-0.02l-2.48,0.3l-0.09-0.63l5.98-0.73l0.09,0.63l-0.72,0.09l0,0.02
			c0.59,0.24,0.92,0.67,1.01,1.27c0.07,0.51-0.06,0.93-0.38,1.26c-0.33,0.33-0.8,0.53-1.41,0.61c-0.69,0.08-1.26-0.01-1.71-0.28
			c-0.46-0.27-0.73-0.69-0.8-1.24C486.26,88.25,486.43,87.83,486.85,87.5z M488.5,87.28l-0.57,0.07c-0.34,0.04-0.61,0.18-0.82,0.42
			c-0.21,0.24-0.29,0.53-0.24,0.85c0.05,0.38,0.25,0.66,0.58,0.84c0.33,0.18,0.77,0.24,1.31,0.17c0.46-0.06,0.8-0.2,1.03-0.44
			c0.23-0.23,0.32-0.53,0.27-0.87c-0.05-0.37-0.23-0.65-0.52-0.84C489.25,87.3,488.9,87.23,488.5,87.28z"/>
		<path class="st1" d="M486.36,94.8l0.07-0.89l2.13-1.58l0-0.02l-1.98-0.17l0.05-0.64l4.12,0.36l-0.05,0.64l-1.89-0.16l0,0.02
			l1.75,1.83l-0.07,0.83l-1.83-2.01L486.36,94.8z"/>
		<path class="st1" d="M485.36,98.13l0.19-0.61l0.62,0.18l0-0.01c-0.39-0.4-0.51-0.86-0.36-1.38c0.12-0.38,0.31-0.65,0.59-0.8
			c0.27-0.15,0.58-0.18,0.93-0.08c0.74,0.22,1.04,0.76,0.91,1.63l-0.18,1.19c0.67,0.2,1.09,0.03,1.25-0.49
			c0.14-0.46,0.1-0.92-0.11-1.38l0.65,0.19c0.13,0.45,0.13,0.91-0.02,1.4c-0.27,0.9-0.9,1.2-1.89,0.91L485.36,98.13z M487.55,98.1
			l0.15-0.96c0.04-0.29,0.04-0.53-0.02-0.7c-0.06-0.17-0.22-0.3-0.49-0.38c-0.19-0.06-0.37-0.04-0.54,0.06
			c-0.16,0.1-0.28,0.26-0.35,0.48c-0.09,0.3-0.06,0.58,0.1,0.85c0.16,0.26,0.41,0.44,0.75,0.54L487.55,98.1z"/>
		<path class="st1" d="M481.85,103.86l0.38-0.52l2.91,2.02l1.22-1.64l-2.91-2.02l0.38-0.52l3.37,2.34l-1.99,2.67L481.85,103.86z"/>
		<path class="st1" d="M479.64,105.77c0.46-0.38,0.95-0.55,1.48-0.5c0.53,0.05,1,0.31,1.42,0.78c0.46,0.51,0.67,1.02,0.64,1.55
			s-0.29,0.99-0.77,1.39c-0.46,0.39-0.95,0.55-1.46,0.49c-0.51-0.06-0.99-0.34-1.43-0.83c-0.43-0.48-0.64-0.98-0.62-1.51
			C478.92,106.62,479.17,106.16,479.64,105.77z M482.09,108.55c0.32-0.27,0.48-0.58,0.47-0.95c0-0.37-0.17-0.74-0.51-1.11
			c-0.32-0.36-0.67-0.56-1.05-0.61c-0.37-0.05-0.72,0.06-1.04,0.32c-0.32,0.27-0.48,0.58-0.47,0.92c0.01,0.35,0.18,0.71,0.52,1.08
			c0.34,0.38,0.69,0.6,1.05,0.66C481.43,108.92,481.77,108.82,482.09,108.55z"/>
		<path class="st1" d="M474.65,108.98l0.58-0.3l1.7,3.04l0.85-0.43c-0.54-1.19-0.82-2.07-0.84-2.65c-0.02-0.58,0.17-0.97,0.56-1.18
			c0.12-0.06,0.23-0.1,0.34-0.11l0.27,0.48c-0.11,0-0.21,0.03-0.3,0.08c-0.52,0.27-0.28,1.47,0.72,3.61l-1.91,0.98L474.65,108.98z"
			/>
		<path class="st1" d="M470.14,110.32l0.58-0.15l0.88,3.07c0.03-0.12,0.07-0.3,0.13-0.52l1.09-3.09l0.66-0.17l1.11,3.85l-0.58,0.15
			l-0.87-3.03c-0.01,0.08-0.04,0.22-0.1,0.42l-1.13,3.15l-0.66,0.17L470.14,110.32z"/>
		<path class="st1" d="M466.07,110.79c0.3-0.2,0.67-0.31,1.11-0.34c0.59-0.03,1.08,0.13,1.46,0.47c0.39,0.35,0.6,0.82,0.64,1.4
			c0.05,0.65-0.11,1.19-0.48,1.61c-0.36,0.42-0.87,0.65-1.52,0.68c-0.36,0.02-0.69-0.03-0.97-0.14l-0.05-0.65
			c0.32,0.19,0.66,0.28,1,0.26c0.42-0.02,0.76-0.19,1.01-0.49c0.25-0.31,0.36-0.7,0.33-1.17c-0.03-0.47-0.18-0.83-0.46-1.08
			s-0.62-0.37-1.05-0.35c-0.36,0.02-0.69,0.15-0.99,0.4L466.07,110.79z"/>
		<path class="st1" d="M462.14,110.14l0.66,0.09l-0.09,0.62l0.02,0c0.35-0.43,0.81-0.61,1.36-0.53c0.41,0.06,0.71,0.21,0.91,0.45
			c0.2,0.24,0.28,0.53,0.23,0.88c-0.1,0.74-0.61,1.1-1.53,1.1l-1.25-0.01c-0.09,0.67,0.14,1.04,0.7,1.12
			c0.49,0.07,0.96-0.03,1.4-0.3l-0.09,0.65c-0.44,0.19-0.92,0.25-1.44,0.18c-0.96-0.13-1.38-0.69-1.24-1.67L462.14,110.14z
			 M462.51,112.22l1.01,0.01c0.31,0,0.55-0.04,0.72-0.12c0.17-0.08,0.27-0.26,0.31-0.52c0.03-0.19-0.02-0.36-0.15-0.5
			c-0.13-0.14-0.31-0.23-0.54-0.26c-0.33-0.05-0.61,0.03-0.85,0.22c-0.24,0.19-0.39,0.45-0.44,0.79L462.51,112.22z"/>
		<path class="st1" d="M458.76,109.11l-1.84,3.55l-1.61-0.79c-0.36-0.18-0.61-0.4-0.74-0.65c-0.13-0.26-0.13-0.52,0.01-0.79
			c0.24-0.46,0.62-0.62,1.14-0.49c-0.53-0.35-0.67-0.76-0.42-1.24c0.15-0.29,0.39-0.47,0.73-0.56c0.33-0.08,0.67-0.04,1.02,0.13
			L458.76,109.11z M456.58,111.88l0.52-1l-0.89-0.43c-0.48-0.23-0.81-0.17-0.99,0.18c-0.16,0.31-0.03,0.57,0.4,0.78L456.58,111.88z
			 M457.35,110.4l0.57-1.1l-1.03-0.5c-0.48-0.23-0.82-0.16-1.01,0.21c-0.19,0.36-0.01,0.67,0.53,0.93L457.35,110.4z"/>
		<path class="st1" d="M452.27,105l0.46,0.37l-2.08,2.44c0.12-0.05,0.29-0.11,0.52-0.2l3.26-0.91l0.53,0.42l-2.61,3.06l-0.47-0.37
			l2.06-2.41c-0.07,0.04-0.21,0.09-0.42,0.17l-3.33,0.91l-0.53-0.42L452.27,105z"/>
		<path class="st1" d="M449.3,101.47l0.4,0.51l-1.49,1.09l1.28,1.62l1.49-1.09l0.4,0.51l-3.28,2.4l-0.4-0.51l1.34-0.98l-1.28-1.62
			l-1.34,0.98l-0.4-0.51L449.3,101.47z"/>
		<path class="st1" d="M448.03,98.86c0.25,0.54,0.27,1.04,0.07,1.52c-0.2,0.47-0.6,0.83-1.18,1.08c-0.63,0.27-1.21,0.31-1.72,0.12
			c-0.51-0.18-0.9-0.56-1.16-1.13c-0.25-0.54-0.28-1.04-0.07-1.49c0.21-0.45,0.61-0.81,1.23-1.07c0.6-0.25,1.16-0.29,1.67-0.12
			C447.38,97.94,447.77,98.3,448.03,98.86z M444.57,100.27c0.17,0.38,0.44,0.62,0.81,0.72c0.37,0.11,0.78,0.06,1.24-0.13
			c0.45-0.19,0.75-0.45,0.9-0.78c0.16-0.33,0.15-0.68-0.02-1.05c-0.17-0.38-0.44-0.61-0.78-0.71s-0.75-0.05-1.22,0.15
			c-0.47,0.2-0.79,0.45-0.95,0.77C444.38,99.55,444.39,99.89,444.57,100.27z"/>
		<path class="st1" d="M446.85,96.15l-4.06,0.74l-0.35-1.7c-0.08-0.38-0.05-0.7,0.08-0.96c0.13-0.25,0.35-0.41,0.66-0.47
			c0.53-0.1,0.9,0.1,1.11,0.57c-0.04-0.61,0.21-0.97,0.75-1.07c0.33-0.06,0.63,0.01,0.91,0.22c0.28,0.2,0.45,0.49,0.52,0.85
			L446.85,96.15z M443.22,96.16l1.14-0.21l-0.19-0.94c-0.1-0.5-0.36-0.72-0.77-0.65c-0.35,0.06-0.48,0.32-0.39,0.78L443.22,96.16z
			 M444.92,95.85l1.25-0.23l-0.22-1.09c-0.1-0.51-0.37-0.72-0.79-0.64c-0.41,0.07-0.56,0.4-0.44,0.96L444.92,95.85z"/>
		<path class="st1" d="M446.22,88.74l-0.02,0.64l-1.88-0.06l-0.05,2.03l1.88,0.06l-0.02,0.64L442,91.91l0.02-0.64l1.69,0.06
			l0.05-2.03l-1.69-0.06l0.02-0.64L446.22,88.74z"/>
		<path class="st1" d="M447.28,84.32l-0.15,0.55l-3.19-0.84c0.1,0.08,0.23,0.21,0.4,0.38l2.23,2.49l-0.18,0.64l-4-1.05l0.15-0.56
			l3.15,0.83c-0.07-0.05-0.18-0.15-0.33-0.3l-2.26-2.55l0.18-0.64L447.28,84.32z"/>
		<path class="st1" d="M449.35,80.27l-0.43,0.79l-2.6,0.66l-0.01,0.01l1.77,0.89l-0.3,0.56l-3.67-1.86l0.3-0.56l1.68,0.85l0.01-0.01
			l-0.89-2.33l0.4-0.74l0.89,2.53L449.35,80.27z"/>
		<path class="st1" d="M451.61,77.58l-0.42,0.49l-0.5-0.39l-0.01,0.01c0.2,0.52,0.13,0.98-0.22,1.4c-0.26,0.31-0.55,0.48-0.86,0.52
			c-0.32,0.04-0.61-0.05-0.89-0.27c-0.6-0.47-0.66-1.09-0.19-1.84l0.64-1.03c-0.55-0.43-1-0.43-1.35-0.01
			c-0.31,0.37-0.46,0.81-0.45,1.31l-0.53-0.41c0.05-0.46,0.25-0.89,0.58-1.28c0.61-0.72,1.32-0.77,2.12-0.14L451.61,77.58z
			 M449.57,76.79l-0.52,0.83c-0.16,0.25-0.25,0.47-0.26,0.66c-0.01,0.18,0.09,0.36,0.3,0.53c0.16,0.12,0.33,0.17,0.52,0.14
			c0.19-0.03,0.36-0.13,0.51-0.31c0.21-0.24,0.29-0.52,0.24-0.82c-0.04-0.3-0.2-0.56-0.48-0.77L449.57,76.79z"/>
		<path class="st1" d="M458.09,74.73l-0.47,0.29l-0.81-1.23l-2.6,1.56l0.81,1.23l-0.48,0.29l-1.11-1.69l0.31-0.19
			c0.05-1.19-0.28-2.35-1-3.47l1.81-1.09l1.91,2.92l0.52-0.31L458.09,74.73z M455.91,73.69l-1.61-2.46l-0.77,0.47
			c0.53,0.95,0.81,1.93,0.82,2.94L455.91,73.69z"/>
		<path class="st1" d="M459.26,69.11l-1.16,0.42l1.29,3.22l-0.62,0.22l-1.29-3.22l-1.16,0.42l-0.2-0.51l2.93-1.07L459.26,69.11z"/>
		<path class="st1" d="M464.66,71.6L464,71.7l-0.6-3.39l-2.08,0.32l0.6,3.39l-0.65,0.1l-0.69-3.93l3.38-0.53L464.66,71.6z"/>
	</g>
	<polygon class="st2" points="389.8,119.46 482.6,115.79 484.12,145.16 391.33,148.83 	"/>
	<text transform="matrix(1.0364 -0.041 0.0519 0.9987 390.1552 126.2765)"><tspan x="0" y="0" class="st1 st3 st4">  </tspan><tspan x="0" y="9.64" class="st1 st3 st4">Онлайн оценка ущерба </tspan><tspan x="0" y="19.28" class="st1 st3 st4">  </tspan></text>
	<polygon class="st2" points="107.21,120.98 186.36,72.73 203.05,97.92 123.9,146.17 	"/>
	<text transform="matrix(0.8605 -0.5245 0.5524 0.8336 111.085 126.826)"><tspan x="0" y="0" class="st1 st3 st5">  </tspan><tspan x="0" y="9.9" class="st1 st3 st5">Онлайн оценка ущерба </tspan><tspan x="0" y="19.81" class="st1 st3 st5">  </tspan></text>
	<polygon class="st2" points="353.75,95.64 440.52,34.17 461.74,61.81 374.97,123.28 	"/>
	<text transform="matrix(0.8179 -0.5795 0.6091 0.7931 358.6754 102.0583)"><tspan x="0" y="0" class="st1 st3 st6">  </tspan><tspan x="0" y="11.42" class="st1 st3 st6">Онлайн оценка ущерба </tspan><tspan x="0" y="22.84" class="st1 st3 st6">  </tspan></text>
	<polygon class="st2" points="196.74,79.98 286.33,76.44 286.83,86.16 197.24,89.7 	"/>
	<text transform="matrix(1.0364 -0.041 0.0519 0.9987 197.0767 86.5327)" class="st1 st3 st7">  Помощь на месте ДТП </text>
	<polygon class="st2" points="181.87,103.37 229.49,96.95 232.65,117.4 185.03,123.82 	"/>
	<text transform="matrix(1.0247 -0.1381 0.1527 0.9883 182.9548 110.408)"><tspan x="0" y="0" class="st1 st3 st8">Помощь на </tspan><tspan x="0" y="10.13" class="st1 st3 st8">месте ДТП </tspan></text>
	<polygon class="st2" points="338.84,94.22 413.93,23.25 422.74,31.9 347.65,102.87 	"/>
	<text transform="matrix(0.7207 -0.6812 0.7137 0.7004 344.7758 100.0494)" class="st1 st3 st9">Помощь на месте ДТП </text>
	<polygon class="st2" points="93.28,134.68 225.84,129.44 226.58,143.83 94.03,149.07 	"/>
	<text transform="matrix(1.0364 -0.041 0.0519 0.9987 93.7808 144.3779)" class="st1 st3 st10">  Помощь на месте ДТП </text>
	<polygon class="st2" points="360.87,120.03 441.76,94.44 445.59,105.4 364.7,130.99 	"/>
	<text transform="matrix(0.9772 -0.3091 0.3298 0.9441 363.4505 127.4182)" class="st1 st3 st11">  Помощь на месте </text>
	<polygon class="st2" points="419.3,112.22 441.59,105.16 445.42,116.13 423.13,123.18 	"/>
	<text transform="matrix(0.9772 -0.3091 0.3298 0.9441 421.879 119.6064)" class="st1 st3 st11"> ДТП </text>
	<polygon class="st2" points="153.2,169.75 260.78,163.78 262.07,182.03 154.49,187.99 	"/>
	<text transform="matrix(1.0891 -0.0604 0.0708 0.9975 153.6447 176.0498)"><tspan x="0" y="0" class="st1 st3 st12">Проверка полиса виновника</tspan><tspan x="0" y="8.92" class="st1 st3 st12">  </tspan></text>
	<polygon class="st2" points="293.84,131.6 339.83,124.6 342.03,137.3 296.04,144.3 	"/>
	<text transform="matrix(1.0215 -0.1555 0.1707 0.9853 294.6017 135.988)"><tspan x="0" y="0" class="st1 st3 st13">Проверка полиса  </tspan><tspan x="0" y="6.29" class="st1 st3 st13">  </tspan></text>
	<polygon class="st2" points="343.3,124.45 369.21,131.81 365.54,144.14 339.63,136.78 	"/>
	<text transform="matrix(0.9977 0.2834 -0.2852 0.9585 342.0347 128.7078)"><tspan x="0" y="0" class="st1 st3 st14">виновника</tspan><tspan x="0" y="6.27" class="st1 st3 st14">  </tspan></text>
	<polygon class="st2" points="315.21,90.26 383.12,3.43 391.8,9.77 323.89,96.59 	"/>
	<text transform="matrix(0.6045 -0.7729 0.8079 0.5893 321.0587 94.5244)" class="st1 st3 st15"> Круглосуточная поддержка </text>
	<polygon class="st2" points="294.11,73.94 364.29,108.99 357.2,122.33 287.02,87.28 	"/>
	<text transform="matrix(0.921 0.4601 -0.4693 0.883 291.6636 78.5451)"><tspan x="0" y="0" class="st1 st3 st16"> </tspan><tspan x="0" y="7.37" class="st1 st3 st16"> Расчет стоимости ущерба </tspan></text>
	<polygon class="st2" points="406.16,154.06 496.42,135.75 502.82,163.88 412.56,182.19 	"/>
	<text transform="matrix(1.0103 -0.2049 0.2219 0.9751 407.6428 160.5889)"><tspan x="0" y="0" class="st1 st3 st17">Подготовка документов </tspan><tspan x="0" y="9.46" class="st1 st3 st17">для суда</tspan><tspan x="0" y="18.91" class="st1 st3 st17">  </tspan></text>
	<polygon class="st2" points="144.07,148.46 246.73,144.4 248.31,174.76 145.65,178.82 	"/>
	<text transform="matrix(1.0905 -0.0431 0.0519 0.9987 144.4356 155.5061)"><tspan x="0" y="0" class="st1 st3 st18">Подготовка документов </tspan><tspan x="0" y="9.97" class="st1 st3 st18">для суда</tspan><tspan x="0" y="19.93" class="st1 st3 st18">  </tspan></text>
	<polygon class="st2" points="228.42,113.71 303.42,110.75 304.44,130.48 229.44,133.45 	"/>
	<text transform="matrix(1.0364 -0.041 0.0519 0.9987 228.8521 122.0556)"><tspan x="0" y="0" class="st1 st3 st19">Оформление </tspan><tspan x="0" y="7.37" class="st1 st3 st19">европротокола </tspan></text>
	<polygon class="st2" points="454.42,157.85 501.4,155.99 501.85,164.65 454.87,166.51 	"/>
	<text transform="matrix(1.0364 -0.041 0.0519 0.9987 454.7239 163.6832)" class="st1 st3 st20">Оформление  </text>
	<polygon class="st2" points="258.76,59.75 300.46,39.17 304.62,46.89 262.92,67.47 	"/>
	<text transform="matrix(0.9097 -0.449 0.4744 0.8803 261.5631 64.9546)" class="st1 st3 st21">Оформление  </text>
	<polygon class="st2" points="449.16,162.95 502.74,172.98 501.1,181.48 447.52,171.45 	"/>
	<text transform="matrix(1.0212 0.1912 -0.1893 0.9819 448.0556 168.6776)" class="st1 st3 st22"> европротокола </text>
	<polygon class="st2" points="300.87,58.59 344.63,27.7 349.99,34.7 306.23,65.6 	"/>
	<text transform="matrix(0.819 -0.5782 0.6077 0.7941 304.4827 63.3136)" class="st1 st3 st23"> европротокола </text>
	<g>
		<path class="st1" d="M300.36,147.33l-0.64-0.18l0.99-3.29l-2.02-0.58l-0.99,3.29l-0.64-0.18l1.15-3.81l3.3,0.95L300.36,147.33z"/>
		<path class="st1" d="M302.97,148.72c-0.53-0.3-0.86-0.69-0.99-1.19c-0.13-0.5-0.03-1.01,0.28-1.54c0.34-0.58,0.78-0.94,1.3-1.08
			c0.52-0.14,1.06-0.06,1.63,0.26c0.54,0.3,0.86,0.69,0.97,1.17c0.11,0.48,0,1.01-0.33,1.57c-0.33,0.55-0.75,0.9-1.27,1.05
			C304.05,149.1,303.52,149.02,302.97,148.72z M304.88,145.6c-0.37-0.21-0.73-0.25-1.09-0.13c-0.36,0.12-0.66,0.39-0.91,0.82
			c-0.24,0.41-0.32,0.79-0.25,1.15c0.08,0.36,0.3,0.64,0.66,0.84c0.37,0.21,0.73,0.25,1.06,0.13c0.34-0.12,0.63-0.39,0.88-0.82
			c0.26-0.43,0.35-0.82,0.29-1.16C305.47,146.08,305.25,145.81,304.88,145.6z"/>
		<path class="st1" d="M307.23,153.68l-0.41-0.37l1.02-1.06l-2.26-2.03l-1.02,1.06l-0.42-0.37l1.4-1.45l0.27,0.24
			c1.21-0.25,2.28-0.85,3.21-1.8l1.58,1.41l-2.42,2.51l0.45,0.4L307.23,153.68z M307.69,151.39l2.04-2.12l-0.67-0.6
			c-0.81,0.74-1.72,1.24-2.73,1.5L307.69,151.39z"/>
		<path class="st1" d="M313,153.09l-0.98-1.27l-2.86,2.03l-0.39-0.52l3.32-2.35l1.37,1.79L313,153.09z"/>
		<path class="st1" d="M311.26,157.35c-0.26-0.53-0.3-1.04-0.1-1.51c0.19-0.48,0.58-0.84,1.15-1.1c0.63-0.28,1.2-0.33,1.71-0.16
			c0.51,0.17,0.91,0.54,1.19,1.11c0.26,0.54,0.3,1.04,0.1,1.49c-0.19,0.46-0.6,0.82-1.2,1.09c-0.6,0.27-1.15,0.32-1.67,0.15
			C311.92,158.25,311.52,157.9,311.26,157.35z M314.68,155.87c-0.18-0.37-0.46-0.61-0.82-0.71c-0.37-0.1-0.78-0.05-1.24,0.16
			c-0.44,0.2-0.74,0.46-0.89,0.8c-0.15,0.33-0.13,0.68,0.05,1.05c0.18,0.37,0.45,0.61,0.8,0.69c0.35,0.09,0.75,0.03,1.22-0.18
			c0.47-0.21,0.78-0.47,0.93-0.79C314.88,156.58,314.87,156.24,314.68,155.87z"/>
		<path class="st1" d="M316.55,161.71l-0.29-1.16l-3.47,0.79l-0.16-0.62l3.47-0.79l-0.3-1.17l0.55-0.12l0.75,2.95L316.55,161.71z"/>
		<path class="st1" d="M313.18,164.87c-0.02-0.59,0.16-1.06,0.53-1.42c0.37-0.36,0.88-0.55,1.52-0.56c0.69-0.02,1.24,0.15,1.65,0.51
			c0.4,0.36,0.62,0.85,0.64,1.47c0.02,0.59-0.15,1.06-0.52,1.4c-0.37,0.34-0.89,0.52-1.56,0.54c-0.66,0.02-1.19-0.15-1.6-0.5
			C313.41,165.95,313.2,165.48,313.18,164.87z M316.95,164.83c-0.01-0.41-0.17-0.73-0.47-0.96c-0.3-0.23-0.7-0.34-1.21-0.33
			c-0.49,0.01-0.87,0.14-1.15,0.39c-0.27,0.25-0.4,0.57-0.39,0.98c0.01,0.41,0.16,0.73,0.45,0.94c0.28,0.22,0.68,0.32,1.19,0.3
			c0.52-0.01,0.91-0.13,1.18-0.36C316.83,165.56,316.96,165.24,316.95,164.83z"/>
		<path class="st1" d="M313.23,167.82l4.06,0.76l-0.33,1.7c-0.07,0.38-0.22,0.67-0.44,0.86c-0.22,0.19-0.48,0.26-0.79,0.2
			c-0.53-0.1-0.8-0.41-0.82-0.93c-0.2,0.58-0.57,0.82-1.11,0.72c-0.33-0.06-0.59-0.24-0.76-0.52c-0.18-0.29-0.23-0.61-0.16-0.98
			L313.23,167.82z M314.92,168.78l-1.25-0.24l-0.21,1.08c-0.1,0.51,0.07,0.8,0.49,0.88c0.41,0.08,0.67-0.17,0.78-0.74L314.92,168.78
			z M316.62,169.1l-1.14-0.21l-0.18,0.94c-0.1,0.5,0.06,0.79,0.47,0.87c0.35,0.07,0.58-0.13,0.66-0.58L316.62,169.1z"/>
		<path class="st1" d="M310.98,174.92l0.36-0.82l2.53-0.87l0.01-0.01l-1.84-0.75l0.25-0.59l3.82,1.56l-0.25,0.59l-1.75-0.71
			l-0.01,0.01l1.08,2.25l-0.33,0.77l-1.11-2.45L310.98,174.92z"/>
		<path class="st1" d="M308.96,177.77l0.37-0.52l0.53,0.35l0.01-0.01c-0.25-0.5-0.22-0.97,0.1-1.41c0.23-0.33,0.5-0.52,0.81-0.59
			c0.31-0.07,0.62,0,0.91,0.2c0.64,0.42,0.76,1.03,0.35,1.82l-0.55,1.08c0.58,0.38,1.03,0.35,1.35-0.1
			c0.28-0.39,0.39-0.84,0.34-1.35l0.56,0.37c-0.01,0.46-0.17,0.91-0.47,1.33c-0.55,0.77-1.24,0.87-2.09,0.31L308.96,177.77z
			 M311.06,178.39l0.45-0.87c0.14-0.27,0.2-0.49,0.2-0.68c0-0.18-0.12-0.35-0.35-0.5c-0.17-0.11-0.34-0.14-0.53-0.1
			c-0.19,0.04-0.35,0.16-0.48,0.35c-0.18,0.26-0.24,0.54-0.17,0.83c0.07,0.3,0.25,0.54,0.54,0.73L311.06,178.39z"/>
		<path class="st1" d="M302.75,181.14l0.45-0.32l0.91,1.16l2.45-1.77l-0.91-1.16l0.45-0.32l1.25,1.6l-0.29,0.21
			c0.05,1.19,0.49,2.32,1.3,3.38l-1.71,1.23l-2.16-2.76l-0.49,0.35L302.75,181.14z M305.02,182l1.82,2.33l0.73-0.53
			c-0.61-0.9-0.97-1.86-1.07-2.87L305.02,182z"/>
		<path class="st1" d="M301.29,183.27c0.56-0.23,1.08-0.25,1.57-0.05c0.49,0.2,0.87,0.58,1.13,1.15c0.28,0.61,0.33,1.17,0.14,1.66
			c-0.19,0.49-0.58,0.86-1.17,1.11c-0.56,0.24-1.08,0.25-1.55,0.05c-0.47-0.2-0.84-0.6-1.12-1.19c-0.27-0.58-0.31-1.12-0.13-1.61
			C300.35,183.88,300.72,183.51,301.29,183.27z M302.79,186.62c0.39-0.16,0.64-0.42,0.74-0.77c0.11-0.35,0.06-0.75-0.15-1.2
			c-0.2-0.43-0.47-0.73-0.81-0.88c-0.34-0.15-0.71-0.15-1.09,0.01c-0.39,0.16-0.64,0.41-0.73,0.75c-0.1,0.33-0.04,0.73,0.17,1.18
			c0.21,0.46,0.48,0.76,0.8,0.92C302.04,186.78,302.39,186.78,302.79,186.62z"/>
		<path class="st1" d="M295.12,184.99l0.91-0.17l2.18,1.54l0.02,0l-0.39-1.88l0.65-0.12l0.82,3.91l-0.65,0.12l-0.38-1.79l-0.02,0
			l-1.32,2.11l-0.85,0.16l1.48-2.24L295.12,184.99z"/>
		<path class="st1" d="M291.19,188.94l1.89-4.61c0.34-0.82,0.81-1.23,1.42-1.23c0.17,0,0.32,0.02,0.43,0.05l0,0.57
			c-0.14-0.05-0.27-0.07-0.39-0.07c-0.33,0-0.58,0.19-0.75,0.57l-0.33,0.75l1.63,3.98l-0.73,0l-1.13-3.07
			c-0.01-0.04-0.04-0.14-0.09-0.3l-0.02,0c-0.01,0.06-0.04,0.16-0.08,0.3l-1.16,3.07L291.19,188.94z"/>
		<path class="st1" d="M286.2,183.88l0.64,0.15l-0.79,3.19c0.1-0.15,0.25-0.36,0.44-0.65l1.62-2.24l0.58,0.14l0.42,2.72
			c0.02,0.15,0.05,0.4,0.09,0.77l0.79-3.19l0.55,0.13l-0.96,3.86l-0.82-0.2l-0.43-2.77c-0.03-0.2-0.06-0.48-0.1-0.83l-0.47,0.68
			l-1.66,2.29l-0.86-0.2L286.2,183.88z"/>
		<path class="st1" d="M281.24,183.48l2.59,1.32c0.2-0.4,0.26-0.75,0.16-1.07c-0.09-0.32-0.32-0.57-0.69-0.76
			c-0.41-0.21-0.86-0.27-1.35-0.19l0.29-0.53c0.44-0.06,0.93,0.05,1.46,0.32c0.52,0.26,0.84,0.63,0.96,1.1
			c0.12,0.47,0.03,0.99-0.29,1.57c-0.3,0.55-0.7,0.91-1.21,1.09c-0.51,0.18-1.01,0.15-1.49-0.1c-0.48-0.25-0.77-0.58-0.87-1.02
			s-0.01-0.91,0.28-1.44L281.24,183.48z M281.59,184.26c-0.17,0.33-0.23,0.62-0.17,0.88s0.24,0.47,0.52,0.61
			c0.28,0.14,0.56,0.17,0.86,0.08c0.3-0.09,0.55-0.28,0.76-0.56L281.59,184.26z"/>
		<path class="st1" d="M278.72,179.18l0.51,0.42l-1.21,1.37l1.61,1.32l1.21-1.37l0.51,0.42l-2.67,3.02l-0.51-0.42l1.09-1.24
			l-1.61-1.32l-1.09,1.24l-0.51-0.42L278.72,179.18z"/>
		<path class="st1" d="M273.46,178.37l0.77,0.94l2.8-2.11l0.41,0.5l-2.8,2.11l0.77,0.95l-0.44,0.33l-1.95-2.39L273.46,178.37z"/>
		<path class="st1" d="M275.13,174.11c0.28,0.53,0.32,1.03,0.14,1.51c-0.18,0.48-0.55,0.86-1.12,1.13c-0.62,0.3-1.19,0.36-1.71,0.2
			c-0.52-0.16-0.93-0.52-1.22-1.08c-0.28-0.53-0.33-1.03-0.14-1.49c0.18-0.46,0.57-0.83,1.17-1.12c0.59-0.28,1.14-0.35,1.67-0.19
			C274.45,173.22,274.85,173.57,275.13,174.11z M271.75,175.68c0.19,0.37,0.47,0.6,0.84,0.69c0.37,0.09,0.78,0.03,1.24-0.19
			c0.44-0.21,0.73-0.48,0.86-0.82c0.14-0.34,0.11-0.69-0.08-1.05c-0.19-0.37-0.47-0.59-0.82-0.67c-0.35-0.08-0.76-0.01-1.21,0.21
			c-0.46,0.22-0.76,0.49-0.91,0.81C271.53,174.97,271.56,175.31,271.75,175.68z"/>
		<path class="st1" d="M273.83,171.45l-4.01,0.92l-0.43-1.69c-0.1-0.38-0.09-0.7,0.03-0.96c0.12-0.26,0.33-0.43,0.63-0.5
			c0.52-0.12,0.9,0.06,1.14,0.52c-0.07-0.61,0.16-0.98,0.7-1.1c0.33-0.07,0.63-0.02,0.92,0.18c0.28,0.19,0.47,0.47,0.57,0.83
			L273.83,171.45z M270.2,171.63l1.13-0.26l-0.24-0.93c-0.13-0.5-0.39-0.7-0.8-0.61c-0.35,0.08-0.47,0.35-0.35,0.79L270.2,171.63z
			 M271.88,171.24l1.24-0.28l-0.28-1.07c-0.13-0.5-0.4-0.7-0.82-0.61c-0.41,0.09-0.54,0.42-0.39,0.98L271.88,171.24z"/>
		<path class="st1" d="M274.62,161.81l-0.05,0.54l-1.5-0.14l-0.27,2.95l1.5,0.14l-0.05,0.54l-2.06-0.19l0.03-0.35
			c-0.95-0.77-2.11-1.22-3.47-1.36l0.19-2.06l3.56,0.33l0.05-0.59L274.62,161.81z M272.45,162.84l-3-0.28l-0.08,0.88
			c1.1,0.17,2.08,0.57,2.92,1.18L272.45,162.84z"/>
		<path class="st1" d="M274.25,158.11l-0.2,0.6l-3.41-1.06l-0.29,0.88c1.24,0.5,2.08,0.95,2.52,1.36c0.44,0.41,0.59,0.82,0.45,1.23
			c-0.04,0.13-0.09,0.23-0.16,0.31l-0.54-0.17c0.07-0.07,0.13-0.16,0.16-0.26c0.18-0.54-0.86-1.25-3.13-2.13l0.65-1.99
			L274.25,158.11z"/>
		<path class="st1" d="M276.17,154.61l-0.33,0.55l-1.49-0.82l-0.27,0.46c-0.13,0.22-0.06,0.53,0.21,0.92l0.66,0.96l-0.38,0.64
			l-0.77-1.19c-0.18-0.28-0.25-0.53-0.22-0.77c-0.2,0.25-0.42,0.4-0.67,0.45c-0.25,0.05-0.5,0-0.76-0.14
			c-0.32-0.18-0.51-0.43-0.56-0.75c-0.06-0.32,0.03-0.69,0.27-1.09l0.71-1.21L276.17,154.61z M273.87,154.07l-1.14-0.63l-0.38,0.65
			c-0.27,0.46-0.23,0.8,0.14,1c0.39,0.21,0.72,0.1,0.98-0.35L273.87,154.07z"/>
		<path class="st1" d="M280.38,149.94c-0.1,0.34-0.31,0.65-0.63,0.94c-0.43,0.38-0.91,0.55-1.44,0.52c-0.53-0.04-1-0.28-1.41-0.71
			c-0.46-0.49-0.69-1-0.69-1.55c0.01-0.55,0.25-1.03,0.72-1.45c0.27-0.24,0.55-0.39,0.84-0.48l0.46,0.48
			c-0.37,0.05-0.69,0.18-0.94,0.41c-0.31,0.27-0.46,0.61-0.45,1c0.01,0.39,0.18,0.76,0.51,1.11c0.33,0.35,0.68,0.53,1.06,0.57
			c0.38,0.03,0.72-0.09,1.04-0.36c0.26-0.23,0.43-0.54,0.5-0.92L280.38,149.94z"/>
		<path class="st1" d="M281.91,144.48l0.92,4.9c0.16,0.87-0.01,1.46-0.54,1.77c-0.15,0.09-0.28,0.14-0.39,0.17l-0.31-0.49
			c0.15-0.03,0.27-0.08,0.37-0.14c0.28-0.17,0.39-0.46,0.32-0.87l-0.13-0.81l-3.55-2.59l0.62-0.37l2.63,2.06
			c0.03,0.03,0.11,0.1,0.24,0.22l0.02-0.01c-0.02-0.06-0.05-0.16-0.09-0.29l-0.69-3.21L281.91,144.48z"/>
		<path class="st1" d="M288.61,147.86l-0.53,0.18l-0.51-1.37l-2.89,0.98l0.51,1.37l-0.53,0.18l-0.7-1.88l0.35-0.12
			c0.32-1.15,0.25-2.35-0.21-3.59l2.02-0.69l1.21,3.25l0.58-0.2L288.61,147.86z M286.7,146.39l-1.02-2.74l-0.86,0.29
			c0.31,1.04,0.36,2.05,0.14,3.04L286.7,146.39z"/>
		<path class="st1" d="M291.89,146.01l-0.66,0.08l-0.09-0.62l-0.02,0c-0.22,0.51-0.61,0.79-1.16,0.86c-0.41,0.05-0.74-0.02-1-0.2
			c-0.26-0.18-0.41-0.44-0.46-0.79c-0.1-0.74,0.29-1.22,1.17-1.45l1.21-0.31c-0.09-0.67-0.42-0.97-0.98-0.91
			c-0.49,0.06-0.92,0.27-1.27,0.65l-0.09-0.65c0.37-0.3,0.82-0.47,1.34-0.54c0.96-0.12,1.51,0.32,1.65,1.3L291.89,146.01z
			 M290.95,144.09l-0.97,0.25c-0.3,0.08-0.52,0.18-0.66,0.3c-0.14,0.12-0.19,0.32-0.16,0.58c0.03,0.19,0.12,0.34,0.28,0.45
			c0.16,0.1,0.36,0.14,0.6,0.11c0.33-0.04,0.58-0.18,0.76-0.43c0.18-0.25,0.25-0.54,0.2-0.87L290.95,144.09z"/>
	</g>
	<g>
		<path class="st1" d="M365.35,144.47l-0.02,0l0.51,2.36l-0.65,0.12l-1.22-5.7l0.65-0.12l0.15,0.69l0.02,0
			c0.21-0.58,0.62-0.93,1.23-1.04c0.52-0.1,0.97,0,1.33,0.29c0.37,0.29,0.61,0.74,0.74,1.32c0.14,0.65,0.09,1.21-0.16,1.66
			c-0.25,0.46-0.65,0.74-1.23,0.85C366.18,145,365.72,144.86,365.35,144.47z M364.99,142.9l0.12,0.55c0.07,0.32,0.24,0.58,0.5,0.76
			s0.57,0.24,0.9,0.18c0.39-0.08,0.67-0.28,0.83-0.61c0.16-0.33,0.19-0.76,0.07-1.27c-0.09-0.44-0.27-0.76-0.53-0.96
			c-0.26-0.21-0.57-0.28-0.92-0.21c-0.38,0.07-0.65,0.26-0.83,0.55C364.96,142.18,364.91,142.52,364.99,142.9z"/>
		<path class="st1" d="M372.29,144.5l-0.66-0.01l0-0.62l-0.02,0c-0.29,0.47-0.72,0.7-1.28,0.69c-0.41-0.01-0.73-0.12-0.96-0.33
			c-0.23-0.21-0.35-0.49-0.34-0.84c0.01-0.74,0.46-1.17,1.38-1.28l1.24-0.15c0.01-0.68-0.28-1.02-0.84-1.03
			c-0.5-0.01-0.95,0.15-1.35,0.47l0.01-0.65c0.41-0.24,0.88-0.36,1.41-0.35c0.97,0.02,1.45,0.52,1.45,1.51L372.29,144.5z
			 M371.64,142.47l-1,0.12c-0.31,0.04-0.54,0.11-0.7,0.21c-0.16,0.1-0.24,0.29-0.24,0.55c0,0.19,0.07,0.35,0.21,0.48
			c0.14,0.13,0.33,0.19,0.57,0.19c0.33,0.01,0.6-0.1,0.82-0.32c0.22-0.22,0.32-0.5,0.33-0.84L371.64,142.47z"/>
		<path class="st1" d="M376.1,145c-0.35,0.12-0.74,0.14-1.16,0.05c-0.58-0.11-1.01-0.39-1.29-0.82c-0.28-0.43-0.36-0.94-0.24-1.51
			c0.13-0.64,0.43-1.12,0.89-1.43s1.01-0.41,1.65-0.28c0.36,0.07,0.66,0.2,0.9,0.38l-0.13,0.64c-0.26-0.26-0.56-0.43-0.9-0.5
			c-0.41-0.08-0.78-0.01-1.11,0.23c-0.32,0.23-0.53,0.58-0.63,1.05c-0.09,0.46-0.04,0.84,0.15,1.16c0.2,0.31,0.5,0.51,0.92,0.59
			c0.35,0.07,0.71,0.02,1.07-0.14L376.1,145z"/>
		<path class="st1" d="M379.88,146.64l-0.61-0.25l0.63-1.48c-0.55,0.05-1.01,0-1.39-0.15c-0.86-0.35-1.1-0.96-0.72-1.82l0.53-1.24
			l0.61,0.25l-0.52,1.21c-0.23,0.54-0.11,0.9,0.38,1.1c0.37,0.15,0.81,0.21,1.32,0.17l0.73-1.71l0.61,0.25L379.88,146.64z"/>
		<path class="st1" d="M384.65,147.5l-2.41-1.61c-0.25,0.37-0.35,0.72-0.3,1.05c0.05,0.33,0.25,0.61,0.59,0.84
			c0.38,0.26,0.82,0.37,1.32,0.35l-0.35,0.49c-0.45,0.01-0.92-0.15-1.41-0.48c-0.48-0.32-0.75-0.72-0.82-1.2
			c-0.06-0.48,0.1-0.99,0.48-1.53c0.36-0.51,0.81-0.82,1.34-0.94c0.53-0.12,1.02-0.03,1.46,0.27c0.45,0.3,0.69,0.67,0.74,1.11
			c0.05,0.44-0.11,0.9-0.46,1.4L384.65,147.5z M384.41,146.68c0.21-0.3,0.31-0.59,0.28-0.86c-0.03-0.27-0.18-0.49-0.44-0.67
			c-0.26-0.17-0.54-0.23-0.85-0.17c-0.31,0.06-0.58,0.21-0.83,0.47L384.41,146.68z"/>
		<path class="st1" d="M388.49,148.9l-0.88-0.85l-2.51,2.42l-0.47-0.45l2.51-2.42l-0.88-0.85l0.4-0.38l2.23,2.15L388.49,148.9z"/>
		<path class="st1" d="M389.15,155.73c-0.32-0.18-0.59-0.45-0.81-0.82c-0.29-0.5-0.36-0.99-0.2-1.47c0.15-0.48,0.5-0.87,1.03-1.16
			c0.59-0.32,1.16-0.41,1.72-0.28c0.55,0.14,0.99,0.48,1.31,1.03c0.18,0.31,0.28,0.61,0.3,0.9l-0.59,0.32
			c0.04-0.36-0.03-0.69-0.21-0.98c-0.21-0.36-0.51-0.58-0.91-0.66c-0.4-0.09-0.81-0.01-1.24,0.22c-0.42,0.23-0.69,0.51-0.81,0.86
			c-0.12,0.35-0.07,0.7,0.14,1.06c0.18,0.3,0.45,0.53,0.81,0.69L389.15,155.73z"/>
		<path class="st1" d="M393.52,157.76l-0.42-1.13l-3.35,1.14l-0.23-0.6l3.35-1.14l-0.42-1.13l0.53-0.18l1.07,2.86L393.52,157.76z"/>
		<path class="st1" d="M390.5,161.1c-0.09-0.58,0.02-1.07,0.35-1.48c0.33-0.4,0.8-0.65,1.43-0.74c0.69-0.1,1.25,0.01,1.7,0.31
			c0.44,0.31,0.72,0.77,0.82,1.38c0.1,0.59-0.02,1.07-0.34,1.45c-0.32,0.38-0.81,0.62-1.48,0.72c-0.65,0.09-1.2-0.01-1.65-0.31
			C390.87,162.14,390.59,161.69,390.5,161.1z M394.23,160.62c-0.07-0.41-0.26-0.71-0.58-0.9c-0.32-0.2-0.74-0.26-1.24-0.19
			c-0.48,0.07-0.85,0.24-1.09,0.52c-0.24,0.28-0.33,0.62-0.26,1.02c0.07,0.41,0.25,0.7,0.56,0.88c0.31,0.18,0.72,0.23,1.22,0.16
			c0.51-0.07,0.89-0.24,1.13-0.5C394.21,161.36,394.3,161.02,394.23,160.62z"/>
		<path class="st1" d="M390.67,167.13l0.04-0.57l3.29,0.25c-0.11-0.07-0.27-0.16-0.47-0.3l-2.67-2.05l0.05-0.66l4.12,0.32
			l-0.04,0.58l-3.25-0.25c0.08,0.04,0.2,0.11,0.38,0.23l2.71,2.1l-0.05,0.66L390.67,167.13z"/>
		<path class="st1" d="M389.14,172.2l0.2-0.6l3.24,1.05c-0.15-0.11-0.36-0.27-0.64-0.48l-2.2-1.76l0.18-0.54l2.85-0.16
			c0.15-0.01,0.42-0.01,0.81-0.02l-3.24-1.05l0.18-0.52l3.93,1.27l-0.26,0.77l-2.9,0.17c-0.21,0.01-0.5,0.02-0.87,0.02l0.67,0.51
			l2.25,1.8l-0.27,0.8L389.14,172.2z"/>
		<path class="st1" d="M387.64,174.43c0.33-0.49,0.75-0.79,1.27-0.88c0.52-0.09,1.05,0.03,1.59,0.36c0.59,0.36,0.94,0.8,1.07,1.31
			c0.13,0.51,0.02,1.03-0.33,1.55c-0.33,0.5-0.75,0.79-1.25,0.87c-0.51,0.08-1.04-0.05-1.61-0.4c-0.56-0.34-0.9-0.77-1.04-1.28
			C387.21,175.44,387.31,174.94,387.64,174.43z M390.8,176.43c0.23-0.34,0.28-0.69,0.17-1.04c-0.11-0.35-0.38-0.66-0.81-0.93
			c-0.41-0.26-0.81-0.36-1.18-0.3c-0.37,0.06-0.67,0.25-0.9,0.59c-0.23,0.35-0.29,0.69-0.18,1.02c0.11,0.33,0.38,0.63,0.82,0.9
			c0.44,0.27,0.83,0.38,1.19,0.34C390.28,176.97,390.58,176.78,390.8,176.43z"/>
		<path class="st1" d="M384.24,178.78c0.08-0.35,0.27-0.67,0.58-0.97c0.41-0.41,0.88-0.6,1.4-0.59c0.53,0.01,1.01,0.22,1.45,0.63
			c0.49,0.46,0.75,0.96,0.78,1.51c0.03,0.55-0.19,1.04-0.64,1.49c-0.25,0.25-0.52,0.42-0.81,0.52l-0.49-0.46
			c0.37-0.07,0.67-0.22,0.92-0.46c0.29-0.29,0.42-0.63,0.39-1.02c-0.03-0.39-0.22-0.75-0.58-1.08c-0.35-0.33-0.71-0.5-1.09-0.51
			c-0.38-0.01-0.72,0.13-1.01,0.42c-0.25,0.25-0.4,0.56-0.45,0.94L384.24,178.78z"/>
		<path class="st1" d="M383.52,183.36l1-0.7l-2.12-2.78l0.53-0.37l2.12,2.78l1-0.7l0.34,0.44l-2.53,1.78L383.52,183.36z"/>
		<path class="st1" d="M377.79,182.29l0.54-0.24l1.43,2.88c0-0.12,0.01-0.3,0.03-0.54l0.51-3.23l0.62-0.28l1.79,3.61l-0.55,0.25
			l-1.41-2.84c0,0.08,0,0.23-0.02,0.43l-0.53,3.3l-0.62,0.28L377.79,182.29z"/>
		<path class="st1" d="M371.96,187.45l1.24-4.81c0.22-0.86,0.64-1.33,1.24-1.4c0.17-0.02,0.32-0.02,0.44,0l0.08,0.57
			c-0.15-0.03-0.28-0.04-0.4-0.02c-0.33,0.04-0.55,0.26-0.66,0.66l-0.22,0.79l2.16,3.75l-0.73,0.09l-1.54-2.9
			c-0.02-0.04-0.06-0.13-0.13-0.29l-0.02,0c0,0.06-0.02,0.16-0.04,0.3l-0.74,3.19L371.96,187.45z"/>
		<path class="st1" d="M365.31,181.44l0.57,0.07l-0.18,1.44l5.28,0.65l-0.48,3.95l-0.66-0.08l0.42-3.41l-1.63-0.2l-0.42,3.41
			l-0.66-0.08l0.42-3.41l-1.64-0.2l-0.42,3.41l-0.66-0.08l0.42-3.41l-0.61-0.07L365.31,181.44z"/>
		<path class="st1" d="M360.81,183.03l2.72,1.05c0.16-0.41,0.17-0.78,0.04-1.09c-0.13-0.31-0.39-0.54-0.77-0.69
			c-0.43-0.17-0.89-0.18-1.36-0.05l0.23-0.56c0.43-0.1,0.93-0.05,1.49,0.17c0.54,0.21,0.9,0.54,1.08,1c0.17,0.46,0.14,0.99-0.11,1.6
			c-0.24,0.57-0.6,0.98-1.08,1.21c-0.49,0.23-0.98,0.25-1.49,0.05c-0.5-0.2-0.83-0.5-0.98-0.92c-0.15-0.42-0.11-0.91,0.12-1.46
			L360.81,183.03z M361.24,183.77c-0.14,0.34-0.16,0.64-0.07,0.9s0.29,0.44,0.59,0.56c0.29,0.11,0.58,0.11,0.86-0.01
			c0.28-0.12,0.52-0.33,0.7-0.64L361.24,183.77z"/>
		<path class="st1" d="M359.95,181.09l0.01,0.01l1.39-1.99l0.55,0.36l-3.35,4.8l-0.55-0.36l0.4-0.58l-0.01-0.01
			c-0.58,0.26-1.12,0.22-1.65-0.12c-0.44-0.29-0.69-0.66-0.73-1.12c-0.04-0.46,0.11-0.93,0.45-1.43c0.38-0.55,0.83-0.9,1.34-1.05
			c0.51-0.15,1.01-0.06,1.49,0.25C359.75,180.16,359.96,180.56,359.95,181.09z M359.04,182.43l0.32-0.46
			c0.19-0.27,0.26-0.56,0.21-0.87c-0.05-0.31-0.22-0.56-0.5-0.74c-0.33-0.22-0.68-0.27-1.04-0.14c-0.36,0.12-0.69,0.4-0.99,0.83
			c-0.26,0.37-0.37,0.71-0.34,1.03c0.03,0.32,0.2,0.58,0.5,0.78c0.32,0.21,0.65,0.27,1,0.18S358.81,182.75,359.04,182.43z"/>
		<path class="st1" d="M350.43,180.18l0.45-0.41c0.13,0.03,0.3,0.11,0.5,0.26c0.48,0.37,0.84,0.61,1.06,0.72
			c0.23,0.11,0.49,0.14,0.8,0.06c0.31-0.07,0.67-0.27,1.09-0.59l-0.01-0.01c-0.56,0.08-1.05-0.09-1.46-0.52
			c-0.37-0.39-0.54-0.82-0.5-1.3c0.04-0.48,0.29-0.92,0.73-1.32c0.46-0.41,0.95-0.62,1.47-0.63c0.52,0,0.98,0.2,1.38,0.62
			c0.44,0.45,0.61,0.94,0.52,1.48c-0.09,0.54-0.44,1.08-1.05,1.63c-0.47,0.43-0.92,0.74-1.33,0.95c-0.41,0.21-0.78,0.31-1.1,0.31
			c-0.32-0.01-0.6-0.07-0.85-0.21c-0.25-0.13-0.64-0.39-1.17-0.78C350.75,180.31,350.57,180.22,350.43,180.18z M354.82,179.81
			l0.42-0.38c0.15-0.14,0.29-0.3,0.39-0.48c0.11-0.18,0.18-0.36,0.22-0.55c0.04-0.19,0.03-0.36-0.02-0.52
			c-0.05-0.16-0.15-0.31-0.28-0.46c-0.25-0.26-0.56-0.38-0.91-0.36c-0.36,0.02-0.69,0.17-1,0.45c-0.34,0.31-0.54,0.64-0.58,0.98
			c-0.04,0.35,0.07,0.66,0.34,0.94C353.76,179.84,354.24,179.96,354.82,179.81z"/>
		<path class="st1" d="M352.6,172.67l0.34,0.55l-0.56,0.31l0.01,0.01c0.57,0,1,0.24,1.29,0.7c0.21,0.34,0.28,0.66,0.21,0.96
			c-0.07,0.3-0.26,0.54-0.57,0.71c-0.67,0.37-1.28,0.21-1.85-0.49l-0.78-0.95c-0.61,0.34-0.76,0.74-0.47,1.22
			c0.25,0.42,0.63,0.71,1.12,0.88l-0.58,0.33c-0.43-0.21-0.78-0.54-1.05-0.99c-0.49-0.81-0.3-1.46,0.59-1.96L352.6,172.67z
			 M351.14,174.23l0.62,0.77c0.19,0.24,0.38,0.39,0.55,0.47s0.38,0.05,0.62-0.08c0.17-0.1,0.28-0.24,0.32-0.42
			c0.04-0.18-0.01-0.37-0.13-0.57c-0.17-0.27-0.4-0.45-0.71-0.51c-0.31-0.07-0.61-0.02-0.92,0.15L351.14,174.23z"/>
		<path class="st1" d="M350.55,166.64l0.15,0.62l-3.47,0.76l0.49,1.98l3.47-0.76l0.15,0.62l-4.02,0.88l-0.79-3.22L350.55,166.64z"/>
		<path class="st1" d="M349.82,164.97l0,0.02l2.5,0l0.01,0.64l-6.04-0.01l0-0.64l0.73,0l0-0.02c-0.55-0.31-0.83-0.77-0.83-1.38
			c0-0.51,0.18-0.91,0.55-1.2c0.37-0.29,0.86-0.43,1.48-0.43c0.69,0,1.25,0.16,1.67,0.49c0.42,0.32,0.63,0.77,0.63,1.33
			C350.51,164.29,350.28,164.69,349.82,164.97z M348.15,164.98l0.58,0c0.34,0,0.63-0.11,0.87-0.32c0.24-0.21,0.35-0.48,0.35-0.81
			c0-0.39-0.16-0.69-0.47-0.91s-0.74-0.33-1.28-0.33c-0.46,0-0.82,0.1-1.08,0.31c-0.26,0.2-0.39,0.48-0.39,0.83
			c0,0.37,0.14,0.67,0.41,0.9C347.41,164.87,347.75,164.98,348.15,164.98z"/>
		<path class="st1" d="M351.25,157.96l-0.13,0.56l-3.22-0.71c0.1,0.08,0.24,0.2,0.42,0.36l2.33,2.4l-0.15,0.64l-4.04-0.89l0.13-0.57
			l3.18,0.7c-0.07-0.05-0.18-0.14-0.35-0.28l-2.37-2.46l0.15-0.64L351.25,157.96z"/>
		<path class="st1" d="M355.61,152.88l-0.29,0.46l-1.29-0.76l-1.58,2.53l1.29,0.76l-0.29,0.46l-1.77-1.04l0.19-0.3
			c-0.51-1.09-1.35-1.98-2.52-2.68l1.1-1.77l3.07,1.79l0.32-0.5L355.61,152.88z M353.18,152.9l-2.58-1.51l-0.47,0.75
			c0.92,0.62,1.62,1.38,2.1,2.28L353.18,152.9z"/>
		<path class="st1" d="M353.84,147.49l-0.82,0.89l2.67,2.3l-0.44,0.47l-2.67-2.3l-0.82,0.89l-0.42-0.36l2.08-2.25L353.84,147.49z"/>
		<path class="st1" d="M359.64,147.42l-0.53,0.38l-2.18-2.74l-1.67,1.22l2.18,2.74l-0.52,0.38l-2.52-3.18l2.72-1.99L359.64,147.42z"
			/>
	</g>
	<g>
		<path class="st1" d="M112.11,156.35l-0.63-0.2l1.07-3.27l-2.01-0.63l-1.07,3.27l-0.63-0.2l1.24-3.79l3.27,1.02L112.11,156.35z"/>
		<path class="st1" d="M114.16,156.7l-0.01-0.01l-1.28,2.05l-0.57-0.33l3.1-4.96l0.57,0.33l-0.37,0.6l0.01,0.01
			c0.56-0.29,1.11-0.27,1.65,0.04c0.46,0.27,0.72,0.63,0.78,1.08c0.07,0.45-0.06,0.94-0.38,1.45c-0.36,0.57-0.78,0.94-1.29,1.11
			c-0.5,0.17-1,0.11-1.5-0.18C114.41,157.63,114.17,157.23,114.16,156.7z M115,155.32l-0.3,0.47c-0.18,0.28-0.23,0.57-0.16,0.88
			c0.07,0.31,0.25,0.55,0.54,0.72c0.34,0.2,0.69,0.23,1.05,0.1c0.35-0.14,0.67-0.43,0.95-0.88c0.24-0.38,0.33-0.73,0.28-1.05
			c-0.05-0.32-0.23-0.57-0.54-0.76c-0.33-0.19-0.66-0.24-1-0.14C115.48,154.78,115.21,154.99,115,155.32z"/>
		<path class="st1" d="M118.46,160.62c-0.44-0.42-0.65-0.88-0.64-1.39c0.01-0.51,0.24-0.98,0.68-1.42c0.49-0.47,1-0.72,1.54-0.72
			c0.54-0.01,1.05,0.21,1.51,0.65c0.44,0.42,0.65,0.88,0.63,1.37c-0.02,0.49-0.26,0.97-0.73,1.43c-0.46,0.45-0.96,0.68-1.51,0.7
			C119.4,161.25,118.91,161.04,118.46,160.62z M121.13,158.07c-0.3-0.29-0.65-0.42-1.02-0.39c-0.38,0.03-0.75,0.22-1.1,0.56
			c-0.34,0.33-0.52,0.68-0.54,1.05c-0.02,0.36,0.12,0.69,0.42,0.97c0.31,0.29,0.64,0.42,1,0.39s0.72-0.22,1.07-0.57
			c0.36-0.35,0.56-0.7,0.59-1.05C121.57,158.68,121.43,158.37,121.13,158.07z"/>
		<path class="st1" d="M120.58,162.72l3.47-2.13l0.98,1.47c0.22,0.33,0.32,0.64,0.3,0.92c-0.02,0.28-0.17,0.51-0.43,0.67
			c-0.45,0.28-0.87,0.23-1.25-0.14c0.27,0.56,0.18,0.98-0.29,1.27c-0.28,0.17-0.59,0.21-0.92,0.12c-0.33-0.09-0.6-0.3-0.81-0.61
			L120.58,162.72z M122.48,162.31l-1.07,0.66l0.62,0.93c0.29,0.44,0.62,0.54,0.98,0.32c0.35-0.22,0.36-0.57,0.04-1.06L122.48,162.31
			z M123.93,161.42l-0.98,0.6l0.54,0.81c0.29,0.43,0.61,0.54,0.96,0.33c0.3-0.19,0.32-0.47,0.06-0.86L123.93,161.42z"/>
		<path class="st1" d="M125.75,168.68l-1.03-2.64c-0.43,0.16-0.72,0.39-0.87,0.69c-0.15,0.3-0.15,0.63-0.01,1.01
			c0.16,0.42,0.46,0.76,0.88,1.01l-0.58,0.21c-0.37-0.24-0.67-0.63-0.88-1.17c-0.21-0.53-0.19-1.01,0.04-1.43
			c0.23-0.43,0.67-0.75,1.31-0.98c0.6-0.21,1.16-0.22,1.66-0.03c0.51,0.2,0.86,0.54,1.05,1.03c0.19,0.49,0.17,0.93-0.05,1.31
			c-0.22,0.38-0.63,0.68-1.21,0.88L125.75,168.68z M126.04,167.89c0.36-0.13,0.6-0.31,0.74-0.55c0.14-0.23,0.15-0.5,0.03-0.79
			c-0.11-0.28-0.31-0.48-0.59-0.61c-0.29-0.12-0.61-0.15-0.96-0.07L126.04,167.89z"/>
		<path class="st1" d="M124.88,170.78l0-0.02l-2.48,0.3l-0.09-0.63l5.98-0.73l0.09,0.63l-0.72,0.09l0,0.02
			c0.59,0.24,0.92,0.67,1.01,1.27c0.07,0.51-0.06,0.93-0.38,1.26c-0.33,0.33-0.8,0.53-1.41,0.61c-0.69,0.08-1.26-0.01-1.71-0.28
			c-0.46-0.27-0.73-0.69-0.8-1.24C124.29,171.53,124.46,171.11,124.88,170.78z M126.53,170.56l-0.57,0.07
			c-0.34,0.04-0.61,0.18-0.82,0.42c-0.21,0.24-0.29,0.53-0.24,0.85c0.05,0.38,0.25,0.66,0.58,0.84c0.33,0.18,0.77,0.24,1.31,0.17
			c0.46-0.06,0.8-0.2,1.03-0.44c0.23-0.23,0.32-0.53,0.27-0.87c-0.05-0.37-0.23-0.65-0.52-0.84
			C127.28,170.58,126.93,170.51,126.53,170.56z"/>
		<path class="st1" d="M124.39,178.09l0.07-0.89l2.13-1.58l0-0.02l-1.98-0.17l0.05-0.64l4.12,0.36l-0.05,0.64l-1.89-0.16l0,0.02
			l1.75,1.83l-0.07,0.83l-1.83-2.01L124.39,178.09z"/>
		<path class="st1" d="M123.38,181.41l0.19-0.61l0.62,0.18l0-0.01c-0.39-0.4-0.51-0.86-0.36-1.38c0.12-0.38,0.31-0.65,0.59-0.8
			c0.27-0.15,0.58-0.18,0.93-0.08c0.74,0.22,1.04,0.76,0.91,1.63l-0.18,1.19c0.67,0.2,1.09,0.03,1.25-0.49
			c0.14-0.46,0.1-0.92-0.11-1.38l0.65,0.19c0.13,0.45,0.13,0.91-0.02,1.4c-0.27,0.9-0.9,1.2-1.89,0.91L123.38,181.41z
			 M125.58,181.38l0.15-0.96c0.04-0.29,0.04-0.53-0.02-0.7c-0.06-0.17-0.22-0.3-0.49-0.38c-0.19-0.06-0.37-0.04-0.54,0.06
			c-0.16,0.1-0.28,0.26-0.35,0.48c-0.09,0.3-0.06,0.58,0.1,0.85c0.16,0.26,0.41,0.44,0.75,0.54L125.58,181.38z"/>
		<path class="st1" d="M119.87,187.14l0.38-0.52l2.91,2.02l1.22-1.64l-2.91-2.02l0.38-0.52l3.37,2.34l-1.99,2.67L119.87,187.14z"/>
		<path class="st1" d="M117.67,189.05c0.46-0.38,0.95-0.55,1.48-0.5c0.53,0.05,1,0.31,1.42,0.78c0.46,0.51,0.67,1.02,0.64,1.55
			s-0.29,0.99-0.77,1.39c-0.46,0.39-0.95,0.55-1.46,0.49c-0.51-0.06-0.99-0.34-1.43-0.83c-0.43-0.48-0.64-0.98-0.62-1.51
			C116.95,189.9,117.2,189.44,117.67,189.05z M120.12,191.83c0.32-0.27,0.48-0.58,0.47-0.95c0-0.37-0.17-0.74-0.51-1.11
			c-0.32-0.36-0.67-0.56-1.05-0.61c-0.37-0.05-0.72,0.06-1.04,0.32c-0.32,0.27-0.48,0.58-0.47,0.92c0.01,0.35,0.18,0.71,0.52,1.08
			c0.34,0.38,0.69,0.6,1.05,0.66C119.45,192.2,119.79,192.1,120.12,191.83z"/>
		<path class="st1" d="M112.68,192.26l0.58-0.3l1.7,3.04l0.85-0.43c-0.54-1.19-0.82-2.07-0.84-2.65c-0.02-0.58,0.17-0.97,0.56-1.18
			c0.12-0.06,0.23-0.1,0.34-0.11l0.27,0.48c-0.11,0-0.21,0.03-0.3,0.08c-0.52,0.27-0.28,1.47,0.72,3.61l-1.91,0.98L112.68,192.26z"
			/>
		<path class="st1" d="M108.16,193.6l0.58-0.15l0.88,3.07c0.03-0.12,0.07-0.3,0.13-0.52l1.09-3.09l0.66-0.17l1.11,3.85l-0.58,0.15
			l-0.87-3.03c-0.01,0.08-0.04,0.22-0.1,0.42l-1.13,3.15l-0.66,0.17L108.16,193.6z"/>
		<path class="st1" d="M104.1,194.07c0.3-0.2,0.67-0.31,1.11-0.34c0.59-0.03,1.08,0.13,1.46,0.47c0.39,0.35,0.6,0.82,0.64,1.4
			c0.05,0.65-0.11,1.19-0.48,1.61c-0.36,0.42-0.87,0.65-1.52,0.68c-0.36,0.02-0.69-0.03-0.97-0.14l-0.05-0.65
			c0.32,0.19,0.66,0.28,1,0.26c0.42-0.02,0.76-0.19,1.01-0.49c0.25-0.31,0.36-0.7,0.33-1.17c-0.03-0.47-0.18-0.83-0.46-1.08
			s-0.62-0.37-1.05-0.35c-0.36,0.02-0.69,0.15-0.99,0.4L104.1,194.07z"/>
		<path class="st1" d="M100.16,193.42l0.66,0.09l-0.09,0.62l0.02,0c0.35-0.43,0.81-0.61,1.36-0.53c0.41,0.06,0.71,0.21,0.91,0.45
			s0.28,0.53,0.23,0.88c-0.1,0.74-0.61,1.1-1.53,1.1l-1.25-0.01c-0.09,0.67,0.14,1.04,0.7,1.12c0.49,0.07,0.96-0.03,1.4-0.3
			l-0.09,0.65c-0.44,0.19-0.92,0.25-1.44,0.18c-0.96-0.13-1.38-0.69-1.24-1.67L100.16,193.42z M100.54,195.5l1.01,0.01
			c0.31,0,0.55-0.04,0.72-0.12s0.27-0.26,0.31-0.52c0.03-0.19-0.02-0.36-0.15-0.5c-0.13-0.14-0.31-0.23-0.54-0.26
			c-0.33-0.05-0.61,0.03-0.85,0.22c-0.24,0.19-0.39,0.45-0.44,0.79L100.54,195.5z"/>
		<path class="st1" d="M96.79,192.39l-1.84,3.55l-1.61-0.79c-0.36-0.18-0.61-0.4-0.74-0.65c-0.13-0.26-0.13-0.52,0.01-0.79
			c0.24-0.46,0.62-0.62,1.14-0.49c-0.53-0.35-0.67-0.76-0.42-1.24c0.15-0.29,0.39-0.47,0.73-0.56c0.33-0.08,0.67-0.04,1.02,0.13
			L96.79,192.39z M94.61,195.16l0.52-1l-0.89-0.43c-0.48-0.23-0.81-0.17-0.99,0.18c-0.16,0.31-0.03,0.57,0.4,0.78L94.61,195.16z
			 M95.38,193.68l0.57-1.1l-1.03-0.5c-0.48-0.23-0.82-0.16-1.01,0.21c-0.19,0.36-0.01,0.67,0.53,0.93L95.38,193.68z"/>
		<path class="st1" d="M90.3,188.28l0.46,0.37l-2.08,2.44c0.12-0.05,0.29-0.11,0.52-0.2l3.26-0.91l0.53,0.42l-2.61,3.06l-0.47-0.37
			l2.06-2.41c-0.07,0.04-0.21,0.09-0.42,0.17l-3.33,0.91l-0.53-0.42L90.3,188.28z"/>
		<path class="st1" d="M87.33,184.75l0.4,0.51l-1.49,1.09l1.28,1.62l1.49-1.09l0.4,0.51l-3.28,2.4l-0.4-0.51l1.34-0.98l-1.28-1.62
			l-1.34,0.98l-0.4-0.51L87.33,184.75z"/>
		<path class="st1" d="M86.05,182.14c0.25,0.54,0.27,1.04,0.07,1.52c-0.2,0.47-0.6,0.83-1.18,1.08c-0.63,0.27-1.21,0.31-1.72,0.12
			c-0.51-0.18-0.9-0.56-1.16-1.13c-0.25-0.54-0.28-1.04-0.07-1.49c0.21-0.45,0.61-0.81,1.23-1.07c0.6-0.25,1.16-0.29,1.67-0.12
			C85.41,181.22,85.8,181.58,86.05,182.14z M82.59,183.55c0.17,0.38,0.44,0.62,0.81,0.72c0.37,0.11,0.78,0.06,1.24-0.13
			c0.45-0.19,0.75-0.45,0.9-0.78c0.16-0.33,0.15-0.68-0.02-1.05c-0.17-0.38-0.44-0.61-0.78-0.71s-0.75-0.05-1.22,0.15
			c-0.47,0.2-0.79,0.45-0.95,0.77C82.41,182.83,82.42,183.17,82.59,183.55z"/>
		<path class="st1" d="M84.88,179.43l-4.06,0.74l-0.35-1.7c-0.08-0.38-0.05-0.7,0.08-0.96c0.13-0.25,0.35-0.41,0.66-0.47
			c0.53-0.1,0.9,0.1,1.11,0.57c-0.04-0.61,0.21-0.97,0.75-1.07c0.33-0.06,0.63,0.01,0.91,0.22c0.28,0.2,0.45,0.49,0.52,0.85
			L84.88,179.43z M81.25,179.44l1.14-0.21l-0.19-0.94c-0.1-0.5-0.36-0.72-0.77-0.65c-0.35,0.06-0.48,0.32-0.39,0.78L81.25,179.44z
			 M82.95,179.13l1.25-0.23l-0.22-1.09c-0.1-0.51-0.37-0.72-0.79-0.64c-0.41,0.07-0.56,0.4-0.44,0.96L82.95,179.13z"/>
		<path class="st1" d="M84.25,172.02l-0.02,0.64l-1.88-0.06l-0.05,2.03l1.88,0.06l-0.02,0.64l-4.13-0.14l0.02-0.64l1.69,0.06
			l0.05-2.03l-1.69-0.06l0.02-0.64L84.25,172.02z"/>
		<path class="st1" d="M85.31,167.6l-0.15,0.55l-3.19-0.84c0.1,0.08,0.23,0.21,0.4,0.38l2.23,2.49l-0.18,0.64l-4-1.05l0.15-0.56
			l3.15,0.83c-0.07-0.05-0.18-0.15-0.33-0.3l-2.26-2.55l0.18-0.64L85.31,167.6z"/>
		<path class="st1" d="M87.37,163.55l-0.43,0.79l-2.6,0.66l-0.01,0.01l1.77,0.89l-0.3,0.56l-3.67-1.86l0.3-0.56l1.68,0.85l0.01-0.01
			l-0.89-2.33l0.4-0.74l0.89,2.53L87.37,163.55z"/>
		<path class="st1" d="M89.64,160.86l-0.42,0.49l-0.5-0.39l-0.01,0.01c0.2,0.52,0.13,0.98-0.22,1.4c-0.26,0.31-0.55,0.48-0.86,0.52
			s-0.61-0.05-0.89-0.27c-0.6-0.47-0.66-1.09-0.19-1.84l0.64-1.03c-0.55-0.43-1-0.43-1.35-0.01c-0.31,0.37-0.46,0.81-0.45,1.31
			l-0.53-0.41c0.05-0.46,0.25-0.89,0.58-1.28c0.61-0.72,1.32-0.77,2.12-0.14L89.64,160.86z M87.6,160.07l-0.52,0.83
			c-0.16,0.25-0.25,0.47-0.26,0.66c-0.01,0.18,0.09,0.36,0.3,0.53c0.16,0.12,0.33,0.17,0.52,0.14c0.19-0.03,0.36-0.13,0.51-0.31
			c0.21-0.24,0.29-0.52,0.24-0.82c-0.04-0.3-0.2-0.56-0.48-0.77L87.6,160.07z"/>
		<path class="st1" d="M96.12,158.01l-0.47,0.29l-0.81-1.23l-2.6,1.56l0.81,1.23l-0.48,0.29l-1.11-1.69l0.31-0.19
			c0.05-1.19-0.28-2.35-1-3.47l1.81-1.09l1.91,2.92l0.52-0.31L96.12,158.01z M93.94,156.97l-1.61-2.46l-0.77,0.47
			c0.53,0.95,0.81,1.93,0.82,2.94L93.94,156.97z"/>
		<path class="st1" d="M97.28,152.39l-1.16,0.42l1.29,3.22l-0.62,0.22l-1.29-3.22l-1.16,0.42l-0.2-0.51l2.93-1.07L97.28,152.39z"/>
		<path class="st1" d="M102.68,154.88l-0.65,0.1l-0.6-3.39l-2.08,0.32l0.6,3.39l-0.65,0.1l-0.69-3.93l3.38-0.53L102.68,154.88z"/>
	</g>
</g>
</svg>
