<?xml version="1.0" encoding="utf-8"?>
<!-- Generator: Adobe Illustrator 24.1.3, SVG Export Plug-In . SVG Version: 6.00 Build 0)  -->
<svg version="1.1" id="Слой_1" xmlns="http://www.w3.org/2000/svg" xmlns:xlink="http://www.w3.org/1999/xlink" x="0px" y="0px"
	 viewBox="0 0 101.46 102.66" enable-background="new 0 0 101.46 102.66" xml:space="preserve">
<g>
	<path fill="#B71828" d="M94.14,29.5c0.64-1.12,1.28-2.23,1.93-3.34c-9.28-13.17-24.6-21.79-41.9-21.79
		C25.92,4.37,2.94,27.35,2.94,55.6c0,8.89,2.29,17.26,6.29,24.55c0.84-0.85,1.7-1.69,2.56-2.52C8.35,71.04,6.4,63.54,6.4,55.6
		c0-26.34,21.43-47.77,47.77-47.77C70.88,7.83,85.6,16.47,94.14,29.5z"/>
	<circle fill="#2F2F2F" cx="54.9" cy="55.79" r="43.62"/>
	<path fill="#FFFFFF" d="M35.19,73.78c-0.73-0.73-1.18-1.73-1.18-2.84V38.38c0-1.1,0.45-2.11,1.18-2.84c0.6-0.6,1.4-1.02,2.28-1.14
		v3.47h25.54v-3.42c0.77,0.17,1.46,0.55,2,1.09c0.73,0.73,1.18,1.73,1.18,2.84v20.1h2.95v-20.1c0-1.92-0.78-3.66-2.04-4.92
		c-1.08-1.08-2.5-1.8-4.09-1.99V28.1H37.47v3.33c-1.7,0.13-3.23,0.88-4.36,2.02c-1.26,1.26-2.04,3-2.04,4.92v32.57
		c0,1.92,0.78,3.66,2.04,4.92c1.26,1.26,3,2.05,4.92,2.05h16.42v-2.95H38.03C36.93,74.96,35.92,74.51,35.19,73.78z"/>
	<rect x="44.56" y="50.58" fill="#FFFFFF" width="16.53" height="1.68"/>
	<rect x="44.56" y="42.95" fill="#FFFFFF" width="16.53" height="1.69"/>
	<rect x="44.56" y="66.51" fill="#FFFFFF" width="9.89" height="1.68"/>
	<rect x="44.74" y="58.89" fill="#FFFFFF" width="9.89" height="1.68"/>
	<path fill="#FFFFFF" d="M43.12,56.52h-6.08v6.09h6.08V56.52z M41.65,61.13h-3.14V58h3.14V61.13z"/>
	<path fill="#FFFFFF" d="M43.12,40.79h-6.08v6.08h6.08V40.79z M41.65,45.4h-3.14v-3.14h3.14V45.4z"/>
	<path fill="#FFFFFF" d="M77.94,62.7L77.94,62.7c-0.49-0.49-1.17-0.79-1.91-0.79H60.58c-0.74,0-1.42,0.3-1.91,0.79
		c-0.49,0.49-0.79,1.16-0.79,1.91V79.7c0,0.74,0.31,1.41,0.79,1.91h0c0.49,0.49,1.16,0.79,1.91,0.79h15.46c0.74,0,1.41-0.3,1.9-0.79
		c0.49-0.49,0.79-1.17,0.79-1.91V64.61C78.73,63.86,78.43,63.19,77.94,62.7z M74.6,68.33l-5.78,10.34
		c-0.11,0.22-0.28,0.42-0.49,0.58c-0.75,0.55-1.81,0.4-2.36-0.35l-4.5-6.09c-0.56-0.75-0.4-1.81,0.35-2.37
		c0.75-0.55,1.81-0.4,2.37,0.35l2.95,3.99l4.52-8.09c0.45-0.81,1.48-1.11,2.3-0.66C74.76,66.49,75.06,67.52,74.6,68.33z"/>
	<path fill="#FFFFFF" d="M43.12,48.43h-6.08v6.08h6.08V48.43z M41.65,53.04h-3.14V49.9h3.14V53.04z"/>
	<path fill="#FFFFFF" d="M37.04,70.44h6.08v-6.08h-6.08V70.44z M38.51,65.83h3.14v3.14h-3.14V65.83z"/>
	<text transform="matrix(1 0 0 1 -13.002 125.9612)"><tspan x="0" y="0" fill="#FFFFFF" font-family="'SegoeUI'" font-size="13.7254px">Проверка полиса </tspan><tspan x="24.35" y="16.47" fill="#FFFFFF" font-family="'SegoeUI'" font-size="13.7254px">виновника</tspan><tspan x="62.07" y="32.94" fill="#FFFFFF" font-family="'SegoeUI'" font-size="13.7254px">  </tspan></text>
</g>
</svg>
