<?xml version="1.0" encoding="utf-8"?>
<!-- Generator: Adobe Illustrator 24.1.3, SVG Export Plug-In . SVG Version: 6.00 Build 0)  -->
<svg version="1.1" id="Слой_1" xmlns="http://www.w3.org/2000/svg" xmlns:xlink="http://www.w3.org/1999/xlink" x="0px" y="0px"
	 viewBox="0 0 98.06 99.67" enable-background="new 0 0 98.06 99.67" xml:space="preserve">
<g>
	<path fill="#B71828" d="M85.39,81.4c1.27,0.2,2.54,0.41,3.8,0.62c9.04-13.33,11.69-30.71,5.58-46.89
		C84.79,8.71,55.18-4.67,28.75,5.31C20.43,8.45,13.41,13.54,8,19.87c1.1,0.49,2.18,0.99,3.26,1.51c4.95-5.55,11.28-10.02,18.7-12.83
		c24.64-9.31,52.26,3.17,61.56,27.81C97.44,51.99,94.56,68.81,85.39,81.4z"/>
	<circle fill="#2F2F2F" cx="46.6" cy="53.27" r="43.62"/>
	<text transform="matrix(1 0 0 1 4.2476 123.4458)"><tspan x="0" y="0" fill="#FFFFFF" font-family="'SegoeUI'" font-size="13.7254px">Оформление </tspan><tspan x="-10.39" y="16.47" fill="#FFFFFF" font-family="'SegoeUI'" font-size="13.7254px">европротокола </tspan></text>
	<g>
		<path fill="#FFFFFF" d="M32.36,44.84c0-0.69-0.07-0.79-0.52-0.79c-1.96,0-3.92,0-5.88,0c-1.22,0-2.44,0-3.67,0
			c-0.28,0-0.4,0.18-0.4,0.61c0,0.24,0,0.49,0,0.73c0,0.46,0.12,0.64,0.42,0.64c1.6,0,3.21,0,4.81,0c1.63,0,3.25,0,4.88,0
			c0.22,0,0.35-0.19,0.36-0.53C32.36,45.28,32.36,45.06,32.36,44.84z"/>
		<path fill="#FFFFFF" d="M36.97,40.09c0.36,0.01,0.73,0,1.09,0c0.83-0.01,1.32-0.5,1.32-1.32c0-0.76,0-1.52,0-2.28c0,0,0,0,0,0
			c0-0.79,0.01-1.58,0-2.37c-0.01-0.73-0.53-1.24-1.26-1.25c-0.37,0-0.75,0-1.12,0c-0.72,0-1.25,0.5-1.26,1.22
			c-0.01,1.6-0.01,3.19,0,4.79C35.75,39.59,36.26,40.08,36.97,40.09z"/>
		<path fill="#FFFFFF" d="M24.36,40.09c0.38,0.01,0.76,0.01,1.14,0c0.81-0.01,1.31-0.5,1.31-1.31c0-0.77,0-1.54,0-2.31
			c0,0-0.01,0-0.01,0c0-0.82,0.02-1.64-0.01-2.47c-0.02-0.65-0.54-1.13-1.19-1.14c-0.41,0-0.82-0.01-1.23,0
			c-0.65,0.01-1.18,0.52-1.19,1.17c-0.01,1.62-0.01,3.24,0,4.86C23.19,39.57,23.71,40.07,24.36,40.09z"/>
		<path fill="#FFFFFF" d="M29.99,50.91c0.03-0.2,0.03-0.4,0.03-0.6c0-0.28,0-0.55-0.03-0.83c-0.03-0.23-0.13-0.29-0.4-0.29
			c-2.42,0-4.84,0-7.26,0c-0.31,0-0.4,0.05-0.43,0.31c-0.03,0.27-0.03,0.55-0.03,0.83c0,0.2,0.01,0.4,0.04,0.6
			c0.03,0.17,0.14,0.27,0.38,0.27c1.21-0.01,2.42,0,3.63,0c1.22,0,2.45,0,3.67,0C29.87,51.19,29.95,51.14,29.99,50.91z"/>
		<path fill="#FFFFFF" d="M26.7,54.35c-1.51,0-3.03,0-4.54,0c-0.19,0-0.25,0.05-0.27,0.3c-0.02,0.27-0.02,0.55-0.02,0.83
			c0,0.2,0.01,0.4,0.02,0.6c0.02,0.17,0.08,0.27,0.24,0.27c0.76-0.01,1.51,0,2.27,0c0.77,0,1.53,0,2.3,0c0.17,0,0.22-0.05,0.25-0.27
			c0.02-0.2,0.02-0.4,0.02-0.6c0-0.28,0-0.55-0.02-0.83C26.94,54.41,26.87,54.35,26.7,54.35z"/>
		<path fill="#FFFFFF" d="M27.97,37.68c2.19,0,4.37,0,6.56,0c0-0.8,0-1.58,0-2.37c-0.05-0.01-0.07-0.02-0.1-0.02
			c-2.1,0-4.21,0-6.31,0c-0.15,0-0.17,0.08-0.17,0.21c0,0.66,0,1.32,0,1.98C27.95,37.54,27.96,37.6,27.97,37.68z"/>
		<path fill="#FFFFFF" d="M25.87,66.59c-2.12,0-4.25,0-6.37,0c-0.61,0-1.08-0.38-1.2-0.95c-0.03-0.14-0.02-0.29-0.02-0.43
			c0-5.08,0-10.17,0-15.25c0-3.65,0-7.31,0-10.96c0-0.8,0.49-1.29,1.3-1.29c0.68,0,1.37,0,2.05,0c0.08,0,0.16,0,0.26,0
			c0-0.81,0-1.6,0-2.4c-0.06,0-0.1-0.01-0.15-0.01c-1.57,0-3.14,0-4.7,0c-0.13,0-0.27,0.03-0.4,0.07c-0.42,0.15-0.64,0.49-0.78,0.89
			c0,10.6,0,21.19,0,31.79c0.22,0.64,0.64,0.97,1.34,0.97c4.44-0.01,8.88,0,13.31,0c-0.01-0.81-0.01-1.61-0.01-2.42
			C28.96,66.59,27.41,66.59,25.87,66.59z"/>
		<path fill="#FFFFFF" d="M40.62,36.99c0.71,0,1.42-0.01,2.12,0c0.85,0.01,1.23,0.39,1.23,1.24c0,0.9,0,1.8,0,2.7
			c0.81-0.09,1.62-0.15,2.43-0.17c0-1.51,0-3.03,0-4.54c0-0.29-0.12-0.51-0.35-0.68c-0.28-0.21-0.6-0.27-0.95-0.27
			c-1.44,0-2.88,0-4.31,0c-0.45,0-0.45,0-0.45,0.46c0,0.41,0,0.82,0,1.25C40.46,36.99,40.54,36.99,40.62,36.99z"/>
		<path fill="#FFFFFF" d="M73.72,52.22c-0.02-0.85-0.37-1.58-0.98-2.06c-0.61-0.48-1.39-0.64-2.2-0.46
			c-0.44,0.09-0.88,0.21-1.35,0.34l-0.39-0.96c-0.41-1-0.82-2-1.23-3c-0.85-2.1-2.85-3.46-5.11-3.46l-18.91,0
			c-1.44,0-2.74,0.55-3.87,1.62c-0.73,0.7-1.07,1.53-1.39,2.33l-1.43,3.47l-0.57-0.15c-0.28-0.08-0.56-0.15-0.85-0.21
			c-0.73-0.14-1.44,0-2,0.39c-0.53,0.37-0.88,0.95-0.99,1.62c-0.12,0.74-0.12,1.54-0.01,2.31c0.15,1.09,0.84,1.93,1.88,2.3
			c-0.61,1.72-0.93,3.45-0.94,5.15c-0.02,2.31-0.01,4.61-0.01,6.92l0,2.91c0,1.82,1.31,3.14,3.12,3.16l1.01,0l1.46,0
			c0.96,0,1.78-0.31,2.37-0.9c0.58-0.59,0.89-1.4,0.89-2.36v-1.34l18.19,0c1.14,0,2.28,0,3.44,0c-0.01,0.51,0,1.03,0.01,1.54
			c0.04,1.76,1.35,3.05,3.11,3.06c0.37,0,0.75,0,1.13,0h1.28c1.06-0.05,1.88-0.35,2.43-0.9c0.59-0.59,0.9-1.43,0.9-2.44l0-1.94
			c-0.01-1.94-0.01-3.88,0.01-5.82c0.02-1.92-0.06-4.44-0.93-6.89c-0.02-0.05-0.03-0.09-0.05-0.14c1.22-0.45,1.97-1.54,1.98-2.92
			l0-0.15C73.73,52.89,73.73,52.55,73.72,52.22z M71.8,53.35c-0.01,0.73-0.38,1.14-1.11,1.23l-1.56,0.24l0.55,1.45
			c0.1,0.27,0.2,0.54,0.3,0.8c0.76,2.15,0.84,4.35,0.82,6.23c-0.02,2.03-0.02,4.05-0.01,6.08l0,1.71c0,0.49-0.11,0.85-0.34,1.08
			c-0.22,0.22-0.59,0.34-1.08,0.34h-1.34c-0.35,0-0.7,0-1.04,0c-0.73-0.01-1.19-0.46-1.21-1.18c-0.01-0.56-0.02-1.29,0-2.03
			c0.01-0.16,0.02-0.64-0.35-1.02c-0.24-0.25-0.59-0.38-1.03-0.38c0,0,0,0,0,0c-1.95,0.01-3.89,0.01-5.85,0.01l-18.25,0v3.26
			c0,0.44-0.11,0.78-0.33,1c-0.22,0.22-0.57,0.34-1.01,0.34l-0.57,0c-0.63,0-1.26,0-1.88,0c-0.76-0.01-1.22-0.47-1.22-1.24l0-2.91
			c0-2.3-0.01-4.6,0.01-6.91c0.01-1.64,0.36-3.33,1.02-5.01l0.65-1.6l-1.3-0.22c-0.11-0.02-0.21-0.04-0.31-0.05
			c-0.34-0.04-0.91-0.2-1-0.85c-0.08-0.58-0.08-1.19,0.01-1.74c0.02-0.16,0.09-0.27,0.2-0.35c0.09-0.07,0.21-0.1,0.35-0.1
			c0.06,0,0.12,0.01,0.18,0.02c0.24,0.05,0.47,0.11,0.71,0.18l2.21,0.59l2.07-5.04c0.26-0.64,0.5-1.25,0.94-1.66
			c0.77-0.73,1.6-1.09,2.54-1.09l18.91,0c1.49,0,2.77,0.87,3.33,2.26c0.42,1.05,0.85,2.09,1.28,3.13l0.62,1.51
			c0.02,0.05,0.05,0.11,0.12,0.22l0.36,0.64l1.46-0.39c0.43-0.12,0.87-0.24,1.31-0.33c0.26-0.05,0.47-0.02,0.62,0.09
			c0.15,0.12,0.24,0.33,0.24,0.6c0.01,0.31,0.01,0.62,0,0.93L71.8,53.35z"/>
	</g>
</g>
</svg>
