<?xml version="1.0" encoding="utf-8"?>
<!-- Generator: Adobe Illustrator 24.1.3, SVG Export Plug-In . SVG Version: 6.00 Build 0)  -->
<svg version="1.1" id="Слой_1" xmlns="http://www.w3.org/2000/svg" xmlns:xlink="http://www.w3.org/1999/xlink" x="0px" y="0px"
	 viewBox="0 0 98.31 97.6" enable-background="new 0 0 98.31 97.6" xml:space="preserve">
<g>
	<path fill="#B71828" d="M87.97,74.63c1.29,0.03,2.57,0.06,3.85,0.1C98.97,60.3,99.25,42.72,91,27.52
		C77.53,2.69,46.37-6.56,21.54,6.91C13.73,11.15,7.46,17.15,2.96,24.15c1.15,0.33,2.3,0.68,3.44,1.05
		c4.16-6.17,9.81-11.46,16.79-15.25C46.35-2.6,75.4,6.02,87.96,29.17C95.92,43.86,95.35,60.91,87.97,74.63z"/>
	<circle fill="#2F2F2F" cx="45.48" cy="52.41" r="43.62"/>
	<text transform="matrix(1 0 0 1 -11.355 119.4512)"><tspan x="0" y="0" fill="#FFFFFF" font-family="'SegoeUI'" font-size="13.7254px">Круглосуточная </tspan><tspan x="18.3" y="16.47" fill="#FFFFFF" font-family="'SegoeUI'" font-size="13.7254px">поддержка </tspan></text>
	<path fill="#FFFFFF" d="M48.92,23.38l0.05,2.71c0.72,0,1.43,0.04,2.12,0.11c0.85,0.08,1.69,0.22,2.52,0.39
		c4.23,0.91,8.04,2.99,11.05,5.9l0,0l0.06,0.06h0c0.6,0.58,1.16,1.2,1.7,1.85c0.53,0.65,1.03,1.32,1.48,2.01
		c2.32,3.56,3.64,7.75,3.73,12.04l0,0l0,0.08l0,0c0.01,0.85-0.02,1.69-0.1,2.52c-0.08,0.84-0.21,1.67-0.38,2.48
		c-0.84,4.01-2.74,7.77-5.54,10.81l1.91,1.84c4.5-4.82,7.14-11.38,6.82-18.49C73.75,34.04,62.47,23.37,48.92,23.38z"/>
	<path fill="#FFFFFF" d="M51.4,52.46h-5.49l6.18-9.65c0.36-0.56,0.59-1.27,0.69-2.13c0.26-2.21,0.1-3.79-0.46-4.75
		c-0.57-0.96-1.9-1.45-3.98-1.45c-3.38,0-5.22,1.31-5.53,3.94l-0.42,3.55h4.03l0.41-3.49c0.07-0.57,0.41-0.85,1.03-0.85
		c0.6,0,0.85,0.46,0.74,1.37c-0.21,1.74-0.64,3.12-1.31,4.12l-6.12,9.24l-0.32,2.72h10.24L51.4,52.46z"/>
	<path fill="#FFFFFF" d="M64.4,34.66h-6.04l-6.15,14.9l-0.34,2.9h6.07l-0.31,2.63H62l0.31-2.63h2.22l0.36-3.06h-2.22L64.4,34.66z
		 M58.29,49.39h-2.03l2.98-8.04L58.29,49.39z"/>
	<path fill="#FFFFFF" d="M49.35,81.44c-0.75,0-1.58-0.25-2.5-0.74c-16.11-8.95-25.7-27.25-27.02-51.54
		c0.01-3.02,1.34-4.36,4.44-4.59l8.32-0.75c1.16-0.05,3.15,0.26,4.18,3.13l3,10.6c0.6,3.07-0.83,4.43-1.73,4.97l-4.08,2.35
		c0.98,4.99,2.06,8.84,6.33,15.61c0.33-0.21,0.65-0.43,0.98-0.64c0.79-0.52,1.58-1.04,2.42-1.55c0.93-0.55,2.81-1.17,5.12,0.74
		l0.1,0.09l7.8,7.61c2.11,2.37,1.44,4.28,0.86,5.21l-4.68,7.03C51.84,80.63,50.7,81.44,49.35,81.44z M32.89,27.1
		c-0.02,0-0.04,0-0.06,0l-8.29,0.75c-1.09,0.08-1.3,0.28-1.3,0.28c-0.01,0.01-0.11,0.18-0.11,0.94
		c1.26,23.02,10.25,40.36,25.31,48.73c0.65,0.35,0.86,0.34,0.87,0.34c0,0,0.28-0.09,0.85-0.99l4.66-7c0.07-0.11,0.23-0.37-0.47-1.16
		l-7.66-7.47c-0.84-0.68-1.15-0.49-1.28-0.42c-0.79,0.48-1.55,0.98-2.31,1.48c-0.79,0.52-1.58,1.04-2.43,1.56l-1.36,0.83l-0.88-1.34
		c-5.58-8.52-6.71-12.98-7.91-19.31l-0.22-1.15l6.08-3.51c0.11-0.06,0.42-0.26,0.21-1.37l-2.94-10.35
		C33.35,27.17,33.07,27.1,32.89,27.1z"/>
</g>
</svg>
