<?xml version="1.0" encoding="utf-8"?>
<!-- Generator: Adobe Illustrator 24.1.3, SVG Export Plug-In . SVG Version: 6.00 Build 0)  -->
<svg version="1.1" id="Слой_1" xmlns="http://www.w3.org/2000/svg" xmlns:xlink="http://www.w3.org/1999/xlink" x="0px" y="0px"
	 viewBox="0 0 100.26 99.3" enable-background="new 0 0 100.26 99.3" xml:space="preserve">
<g>
	<circle fill="#2F2F2F" cx="54.1" cy="53.26" r="43.62"/>
	<path fill="#B71828" d="M94.06,27.16c0.64-1.12,1.28-2.23,1.93-3.34C86.71,10.65,71.39,2.03,54.1,2.03
		c-28.25,0-51.23,22.98-51.23,51.23c0,8.89,2.29,17.26,6.29,24.55c0.84-0.85,1.7-1.69,2.56-2.52c-3.44-6.6-5.39-14.09-5.39-22.03
		c0-26.34,21.43-47.77,47.77-47.77C70.81,5.49,85.52,14.12,94.06,27.16z"/>
	<text transform="matrix(1 0 0 1 -26.5334 121.1796)"><tspan x="0" y="0" fill="#FFFFFF" font-family="'SegoeUI'" font-size="13.7254px">  Помощь на месте </tspan><tspan x="56.6" y="16.47" fill="#FFFFFF" font-family="'SegoeUI'" font-size="13.7254px">ДТП </tspan></text>
	<path fill="#FFFFFF" d="M81.15,48.76c-0.18-0.24-0.23-0.42-0.12-0.72c0.66-1.75,0.37-3.34-0.86-4.76
		c-0.04-0.05-0.07-0.12-0.11-0.18c-1.29-0.99-2.57-1.97-3.86-2.96c-0.23-0.09-0.47-0.19-0.7-0.28c-1.81-0.66-3.87-0.11-5.08,1.39
		c-0.64,0.8-1.44,1.16-2.45,1.07c-0.82-0.07-1.64-0.12-2.46-0.17c-1.68-0.1-3.05,0.51-4.08,1.85c-2.61,3.4-5.21,6.81-7.83,10.21
		c-0.7,0.91-1.03,1.92-1.03,3.05c0.6-0.17,1.21-0.23,1.82-0.24c0.04-0.59,0.21-1.13,0.58-1.61c2.63-3.44,5.27-6.88,7.91-10.32
		c0.64-0.83,1.48-1.2,2.53-1.12c0.74,0.05,1.48,0.08,2.21,0.15c1.71,0.17,3.1-0.37,4.21-1.71c0.99-1.2,2.56-1.34,3.82-0.41
		c0.71,0.52,1.4,1.06,2.1,1.61c0.38,0.3,0.77,0.59,1.11,0.93c0.7,0.72,0.9,1.95,0.48,2.71c-2.15-0.73-4.07-0.37-5.45,1.47
		c-1.41,1.88-1.21,3.84,0.15,5.72c-3.72,4.85-7.43,9.69-11.14,14.54c-2.49-0.75-4.28-0.32-5.59,1.33c-1.26,1.59-1.25,3.48,0.04,5.69
		c-0.2,0.16-0.41,0.28-0.64,0.37c0.05,0.15,0.09,0.31,0.14,0.46c0.01,0.28,0.04,0.56,0.03,0.84c-0.01,0.19-0.02,0.38-0.05,0.57
		c0.59-0.14,1.16-0.42,1.71-0.84c0.21-0.16,0.37-0.21,0.64-0.11c1.94,0.78,4.07,0.2,5.32-1.41c1.25-1.61,1.26-3.81,0.03-5.51
		c-0.06-0.08-0.11-0.16-0.19-0.28c0.09-0.12,0.18-0.24,0.28-0.36c3.53-4.61,7.07-9.22,10.59-13.83c0.2-0.26,0.35-0.34,0.69-0.21
		c1.87,0.73,4.01,0.1,5.22-1.5C82.34,52.6,82.35,50.37,81.15,48.76z M63.07,74.77c-0.9,1.18-2.62,1.41-3.8,0.52
		c-1.21-0.91-1.45-2.62-0.53-3.82c0.92-1.21,2.62-1.45,3.82-0.53C63.75,71.85,63.98,73.59,63.07,74.77z M79.68,53.1
		c-0.89,1.19-2.64,1.43-3.83,0.52c-1.2-0.92-1.43-2.62-0.5-3.83c0.91-1.19,2.6-1.42,3.79-0.53C80.34,50.18,80.58,51.9,79.68,53.1z"
		/>
	<path fill="#FFFFFF" d="M55.27,80.28c0.11-0.11,0.23-0.23,0.34-0.34c0.21-0.21,0.42-0.42,0.63-0.62c0.34-0.58,0.75-1.14,1.02-1.75
		c0.59-1.32,0.79-2.65,0.39-3.93c-0.14-0.45-0.35-0.9-0.65-1.34c-0.07-0.1-0.14-0.19-0.22-0.29c-0.4-0.52-0.88-0.98-1.35-1.45
		c-0.53-0.53-0.81-1.13-0.89-1.88c-0.3-2.89-0.62-5.79-0.93-8.68c-0.12-1.19-0.59-2.2-1.44-3.05c-3.03-3.04-6.05-6.08-9.07-9.13
		c-1.19-1.2-2.63-1.63-4.28-1.31c-0.81,0.15-1.62,0.31-2.42,0.48c-1,0.22-1.83-0.04-2.57-0.75c-1.39-1.33-3.5-1.62-5.21-0.73
		c-0.22,0.12-0.44,0.24-0.66,0.36c-1.15,1.14-2.3,2.28-3.45,3.42c-0.03,0.06-0.05,0.13-0.08,0.19c-1.03,1.56-1.12,3.18-0.24,4.83
		c0.15,0.28,0.12,0.47-0.02,0.73c-0.99,1.75-0.69,3.96,0.71,5.39c1.4,1.43,3.61,1.78,5.37,0.82c0.32-0.18,0.48-0.12,0.71,0.12
		c4.09,4.13,8.18,8.25,12.27,12.37c0.11,0.11,0.22,0.22,0.32,0.33c-0.06,0.12-0.1,0.21-0.15,0.3c-1,1.84-0.71,4.02,0.73,5.46
		c1.44,1.44,3.63,1.74,5.45,0.72c0.25-0.14,0.42-0.11,0.65,0.03c1.24,0.72,2.51,0.83,3.79,0.35c0.17-0.07,0.35-0.14,0.52-0.23
		C54.79,80.58,55.03,80.42,55.27,80.28z M30.04,59.2c-1.07,1.05-2.83,1.04-3.87-0.03c-1.05-1.08-1.02-2.82,0.05-3.87
		c1.06-1.04,2.77-1.02,3.83,0.04C31.12,56.41,31.11,58.13,30.04,59.2z M49.25,78.57c-1.06,1.03-2.79,1.02-3.84-0.03
		c-1.06-1.06-1.04-2.81,0.02-3.87c1.07-1.06,2.8-1.04,3.86,0.04C50.35,75.79,50.33,77.51,49.25,78.57z M51.24,79.03
		c1-2.35,0.77-4.23-0.68-5.65c-1.5-1.47-3.33-1.67-5.71-0.6c-4.3-4.33-8.6-8.66-12.91-12.99c1.11-2.04,1.06-4.01-0.58-5.69
		c-1.61-1.65-3.56-1.76-5.6-0.77c-0.51-0.7-0.47-1.95,0.13-2.75c0.29-0.38,0.64-0.72,0.98-1.06c0.62-0.63,1.24-1.25,1.88-1.86
		c1.13-1.08,2.7-1.15,3.84-0.08c1.28,1.19,2.72,1.55,4.4,1.16c0.72-0.17,1.45-0.28,2.17-0.43c1.03-0.21,1.92,0.05,2.65,0.79
		c3.06,3.07,6.11,6.15,9.16,9.22c0.52,0.53,0.77,1.17,0.84,1.9c0.3,2.88,0.63,5.76,0.92,8.64c0.12,1.2,0.59,2.2,1.46,3.04
		c0.32,0.31,0.62,0.62,0.93,0.94c0.03,0.04,0.06,0.07,0.1,0.11c0.48,0.53,0.75,1.13,0.81,1.79c0.02,0.27,0.01,0.55-0.03,0.84
		c-0.17,1.02-0.59,1.9-1.24,2.64c-0.23,0.25-0.48,0.49-0.77,0.71c-0.26,0.2-0.55,0.33-0.85,0.4C52.5,79.48,51.82,79.38,51.24,79.03z
		"/>
	<g>
		<polygon fill="#FFFFFF" points="60.39,30.22 59.88,32.73 67.61,28.41 64.8,36.98 66.64,37.59 71,24.3 		"/>
		<polygon fill="#FFFFFF" points="30.94,28.27 36.37,43.97 38.2,43.33 34.16,31.67 44.87,36.03 43.2,33.26 		"/>
		<polygon fill="#FFFFFF" points="51.55,28.94 46.41,37.58 47.25,39.95 52.1,31.79 59.07,37.12 59.24,34.81 		"/>
	</g>
</g>
</svg>
