<?xml version="1.0" encoding="utf-8"?>
<!-- Generator: Adobe Illustrator 24.1.3, SVG Export Plug-In . SVG Version: 6.00 Build 0)  -->
<svg version="1.1" id="Слой_1" xmlns="http://www.w3.org/2000/svg" xmlns:xlink="http://www.w3.org/1999/xlink" x="0px" y="0px"
	 viewBox="0 0 323.81 87.45" enable-background="new 0 0 323.81 87.45" xml:space="preserve">
<g>
	<g>
		<path fill="#B71828" d="M75.89,56.22c-9.59,4.86-20.18,10.2-29.73,14.63h38.17L75.89,56.22z"/>
		<path fill="#B71828" d="M28.8,67.44l-1.95,3.42h16.22c1.27-11.38,2.63-23.49,3.9-34.9L28.8,67.44z"/>
		<path fill="#B71828" d="M55.58,21.05l-7.31,12.65c8.32,6.41,18.01,13.87,26.31,20.26L55.58,21.05z"/>
	</g>
	<g>
		<path fill="#FFFFFF" d="M107.55,23.78c0.74-1.65,1.69-3.06,4.63-3.06c2.56,0,3.72,0.99,4.63,3.06l9.71,21.85h2.44v4.34H95.36
			v-4.34h2.44L107.55,23.78z M103.37,45.63h17.56l-8.1-18.75c-0.12-0.25-0.33-0.91-0.66-0.91c-0.33,0-0.62,0.66-0.7,0.91
			L103.37,45.63z"/>
		<path fill="#FFFFFF" d="M141.03,49.97c-1.24,0-2.35,0-3.3-0.91c-0.99-0.95-1.07-2.27-1.07-3.39V25.18c0-1.16,0.37-2.31,0.99-3.02
			c0.95-1.03,2.35-1.12,3.47-1.12h18.55v4.34h-15.62c-0.49,0-1.07,0.04-1.49,0.41c-0.45,0.41-0.45,0.99-0.45,1.4v5.82h17.14v4.34
			H142.1v6.78c0,0.45,0.16,0.91,0.41,1.12c0.33,0.33,0.99,0.37,1.86,0.37h15.45v4.34H141.03z"/>
		<path fill="#FFFFFF" d="M176.66,23.45c0.58-1.32,1.36-2.73,4.42-2.73c3.06,0,3.84,1.4,4.42,2.73l11.15,26.52h-5.78l-9.13-23.09
			c-0.12-0.37-0.25-0.83-0.66-0.83c-0.45,0-0.58,0.5-0.7,0.83l-9.13,23.09h-5.78L176.66,23.45z"/>
		<path fill="#FFFFFF" d="M208.98,21.05v11.86h13.72c1.36,0,4.21,0.16,5.66,2.77c0.79,1.41,1.07,3.72,1.07,5.74
			c0,4.05-1.12,5.74-1.32,6.03c-0.54,0.74-2.19,2.52-5.7,2.52h-15.37c-1.49,0-2.27-0.79-2.6-1.16c-0.79-0.95-0.91-2.15-0.91-3.22
			V21.05H208.98z M208.98,43.86c0,0.25,0,0.99,0.25,1.32c0.33,0.45,0.99,0.45,1.57,0.45h8.8c0.41,0,2.27,0,3.18-0.79
			c1.03-0.87,1.03-2.4,1.03-3.59c0-1.28-0.04-2.64-1.16-3.47c-0.79-0.58-1.78-0.54-2.77-0.54h-10.91V43.86z"/>
		<path fill="#FFFFFF" d="M243.45,49.97V25.39h-11.28v-4.34h28.05v4.34h-11.32v24.58H243.45z"/>
		<path fill="#FFFFFF" d="M271.81,23.98c1.03-2.44,2.15-3.26,4.75-3.26c2.48,0,3.72,0.83,4.75,3.26l10.91,25.99h-5.74l-2.97-7.31
			h-13.92l-2.93,7.31h-5.74L271.81,23.98z M270.98,38.77h11.11L277.39,27c-0.17-0.41-0.46-1.2-0.83-1.2s-0.66,0.79-0.83,1.2
			L270.98,38.77z"/>
	</g>
	<g>
		<path fill="#B71828" d="M96.01,61.01c-0.26,0.25-0.39,0.64-0.39,1.17v8.3c0,0.17-0.03,0.28-0.09,0.33
			c-0.06,0.05-0.17,0.08-0.34,0.08h-1.1c-0.15,0-0.27-0.03-0.34-0.08c-0.08-0.05-0.11-0.16-0.11-0.33V62.5
			c0-0.47,0.05-0.93,0.16-1.37c0.11-0.44,0.29-0.83,0.56-1.15c0.27-0.33,0.63-0.59,1.1-0.79c0.46-0.2,1.06-0.3,1.79-0.3h4.75
			c0.17,0,0.28,0.04,0.32,0.12c0.05,0.08,0.07,0.19,0.07,0.32v0.88c0,0.15-0.02,0.26-0.07,0.32c-0.04,0.06-0.15,0.09-0.32,0.09
			h-4.73C96.68,60.63,96.27,60.76,96.01,61.01z"/>
		<path fill="#B71828" d="M114.35,64.88c0,0.87-0.11,1.68-0.33,2.43c-0.22,0.75-0.55,1.42-0.98,1.99c-0.43,0.57-0.99,1.02-1.65,1.35
			c-0.67,0.33-1.45,0.49-2.33,0.49c-0.43,0-0.89-0.02-1.38-0.07c-0.5-0.05-1.02-0.15-1.59-0.33v4.44c0,0.14-0.03,0.22-0.08,0.26
			c-0.05,0.04-0.14,0.06-0.26,0.06h-1.28c-0.12,0-0.21-0.02-0.27-0.06c-0.06-0.04-0.09-0.12-0.09-0.26V59.88
			c0-0.2,0.09-0.33,0.27-0.39c0.76-0.33,1.55-0.56,2.35-0.67c0.81-0.12,1.58-0.17,2.31-0.17c0.91,0,1.71,0.16,2.38,0.47
			c0.67,0.31,1.22,0.75,1.66,1.3c0.43,0.56,0.76,1.21,0.97,1.98C114.25,63.15,114.35,63.98,114.35,64.88z M112.27,64.88
			c0-0.83-0.08-1.54-0.25-2.11c-0.17-0.57-0.41-1.04-0.72-1.39c-0.31-0.35-0.69-0.6-1.12-0.76c-0.43-0.16-0.92-0.24-1.47-0.24
			c-0.4,0-0.85,0.04-1.35,0.11c-0.5,0.07-0.93,0.18-1.28,0.32V69c0.58,0.17,1.08,0.28,1.5,0.33c0.42,0.05,0.8,0.08,1.15,0.08
			c0.52,0,0.99-0.08,1.43-0.24c0.44-0.16,0.81-0.42,1.12-0.77c0.31-0.36,0.56-0.82,0.73-1.4C112.19,66.42,112.27,65.72,112.27,64.88
			z"/>
		<path fill="#B71828" d="M121.71,72.86c-0.35,1.05-0.8,1.78-1.35,2.19c-0.55,0.41-1.25,0.62-2.1,0.62c-0.21,0-0.48-0.01-0.8-0.04
			c-0.32-0.03-0.67-0.1-1.05-0.21c-0.24-0.06-0.33-0.18-0.27-0.37l0.25-1c0.03-0.12,0.08-0.2,0.14-0.22
			c0.06-0.02,0.14-0.02,0.25,0.01c0.29,0.08,0.51,0.13,0.65,0.15c0.14,0.02,0.32,0.03,0.51,0.03c0.52,0,0.94-0.1,1.26-0.31
			c0.32-0.21,0.58-0.61,0.78-1.22c0.01-0.04,0.05-0.15,0.11-0.32c0.06-0.17,0.13-0.35,0.2-0.54c0.07-0.19,0.13-0.37,0.18-0.54
			c0.05-0.17,0.09-0.28,0.1-0.32h-0.43c-0.21,0-0.4-0.04-0.56-0.1c-0.16-0.07-0.3-0.3-0.42-0.7l-3.52-10.83
			c-0.04-0.17,0.02-0.25,0.21-0.25h1.53c0.17,0,0.28,0.08,0.32,0.23c0.03,0.11,0.09,0.32,0.2,0.63c0.1,0.31,0.22,0.68,0.35,1.1
			c0.14,0.42,0.28,0.87,0.43,1.35c0.15,0.48,0.3,0.93,0.44,1.35c0.14,0.42,0.25,0.79,0.35,1.11c0.1,0.32,0.16,0.53,0.2,0.62
			l1.17,4.02h0.14c0.05-0.12,0.14-0.4,0.28-0.82c0.14-0.43,0.28-0.88,0.42-1.36c0.14-0.48,0.28-0.91,0.41-1.3
			c0.13-0.39,0.2-0.6,0.22-0.63c0.01-0.03,0.07-0.17,0.15-0.42c0.08-0.25,0.19-0.57,0.32-0.95c0.13-0.38,0.27-0.8,0.42-1.25
			s0.3-0.89,0.45-1.34c0.14-0.44,0.28-0.85,0.41-1.22c0.13-0.37,0.23-0.67,0.31-0.88c0.04-0.15,0.15-0.23,0.32-0.23h1.46
			c0.18,0,0.25,0.08,0.21,0.25L121.71,72.86z"/>
		<path fill="#B71828" d="M129.96,70.83c-0.06,0.04-0.15,0.06-0.28,0.06h-1.26c-0.12,0-0.21-0.02-0.27-0.06
			c-0.06-0.04-0.09-0.13-0.09-0.28V59.83c0-0.17,0.07-0.37,0.2-0.59c0.14-0.23,0.39-0.34,0.75-0.34h8.2c0.37,0,0.62,0.11,0.75,0.34
			c0.14,0.23,0.2,0.43,0.2,0.59v10.72c0,0.15-0.03,0.25-0.08,0.28c-0.05,0.04-0.15,0.06-0.28,0.06h-1.26
			c-0.12,0-0.21-0.02-0.28-0.06c-0.06-0.04-0.09-0.13-0.09-0.28v-9.92h-6.15v9.92C130.05,70.7,130.02,70.8,129.96,70.83z"/>
		<path fill="#B71828" d="M143.05,70.83c-0.06,0.04-0.15,0.06-0.28,0.06h-1.26c-0.12,0-0.21-0.02-0.27-0.06
			c-0.06-0.04-0.09-0.13-0.09-0.28V59.83c0-0.17,0.07-0.37,0.2-0.59c0.14-0.23,0.39-0.34,0.75-0.34h8.2c0.37,0,0.62,0.11,0.75,0.34
			c0.14,0.23,0.2,0.43,0.2,0.59v10.72c0,0.15-0.03,0.25-0.08,0.28c-0.05,0.04-0.15,0.06-0.28,0.06h-1.26
			c-0.12,0-0.21-0.02-0.28-0.06c-0.06-0.04-0.09-0.13-0.09-0.28v-9.92h-6.15v9.92C143.14,70.7,143.11,70.8,143.05,70.83z"/>
		<path fill="#B71828" d="M163.56,69.77c0,0.3-0.11,0.5-0.34,0.59c-0.69,0.3-1.43,0.51-2.23,0.62c-0.8,0.11-1.57,0.16-2.3,0.16
			c-0.99,0-1.8-0.1-2.43-0.31c-0.63-0.21-1.13-0.49-1.5-0.84c-0.36-0.35-0.62-0.76-0.76-1.21c-0.15-0.46-0.22-0.94-0.22-1.44
			c0-0.52,0.09-1.03,0.26-1.52c0.17-0.5,0.46-0.93,0.86-1.31c0.4-0.38,0.91-0.68,1.54-0.91c0.63-0.23,1.4-0.34,2.32-0.34h2.79v-0.5
			c0-0.36-0.04-0.69-0.1-0.98c-0.07-0.29-0.2-0.54-0.4-0.75c-0.2-0.21-0.48-0.37-0.83-0.49c-0.36-0.11-0.82-0.17-1.38-0.17
			c-0.53,0-1.1,0.04-1.7,0.14c-0.6,0.09-1.09,0.2-1.47,0.32c-0.12,0.05-0.22,0.06-0.3,0.05c-0.08-0.01-0.13-0.08-0.16-0.21
			l-0.28-0.98c-0.03-0.08-0.03-0.15-0.01-0.22c0.02-0.07,0.09-0.12,0.22-0.17c0.58-0.24,1.24-0.41,1.99-0.51
			c0.75-0.1,1.43-0.15,2.06-0.15c1.52,0,2.63,0.34,3.34,1.02c0.7,0.68,1.05,1.67,1.05,2.96V69.77z M161.53,65h-2.65
			c-0.27,0-0.59,0.02-0.95,0.06c-0.36,0.04-0.7,0.14-1.02,0.3c-0.32,0.16-0.59,0.4-0.81,0.71c-0.22,0.31-0.33,0.74-0.33,1.29
			c0,0.41,0.08,0.76,0.23,1.04c0.15,0.28,0.36,0.5,0.62,0.66c0.26,0.16,0.56,0.27,0.91,0.34c0.35,0.07,0.73,0.1,1.14,0.1
			c0.14,0,0.32,0,0.54-0.01c0.22-0.01,0.46-0.03,0.73-0.07c0.27-0.04,0.54-0.08,0.81-0.14c0.27-0.05,0.53-0.13,0.78-0.22V65z"/>
		<path fill="#B71828" d="M177.71,69.4c0.52,0,1.02-0.07,1.52-0.2c0.49-0.14,0.91-0.29,1.25-0.46c0.14-0.08,0.24-0.09,0.3-0.06
			c0.06,0.04,0.12,0.09,0.16,0.17l0.46,0.96c0.12,0.2,0.08,0.36-0.11,0.49c-0.58,0.32-1.21,0.54-1.9,0.66
			c-0.69,0.12-1.34,0.17-1.97,0.17c-1.68,0-2.95-0.51-3.84-1.54c-0.89-1.03-1.33-2.55-1.33-4.58c0-0.97,0.13-1.85,0.38-2.64
			c0.25-0.78,0.61-1.45,1.07-2.01c0.46-0.56,1.03-0.98,1.7-1.28c0.67-0.3,1.42-0.44,2.26-0.44c0.61,0,1.19,0.06,1.75,0.18
			c0.56,0.12,1.09,0.33,1.61,0.62c0.21,0.12,0.26,0.28,0.14,0.48l-0.48,0.94c-0.04,0.09-0.09,0.16-0.15,0.19
			c-0.05,0.04-0.15,0.02-0.28-0.06c-0.37-0.17-0.76-0.3-1.19-0.41c-0.43-0.11-0.88-0.16-1.37-0.16c-0.61,0-1.13,0.13-1.57,0.38
			c-0.44,0.25-0.79,0.59-1.07,1.02c-0.28,0.43-0.49,0.91-0.62,1.46c-0.13,0.55-0.19,1.12-0.19,1.73s0.05,1.18,0.16,1.71
			c0.11,0.53,0.29,1,0.56,1.4c0.27,0.4,0.62,0.72,1.06,0.95C176.46,69.29,177.02,69.4,177.71,69.4z"/>
		<path fill="#B71828" d="M193.82,64.84c0,2.04-0.46,3.6-1.38,4.68c-0.92,1.08-2.25,1.62-4,1.62c-1.72,0-3.02-0.52-3.92-1.58
			c-0.9-1.05-1.34-2.6-1.34-4.66c0-1.01,0.13-1.9,0.4-2.67c0.27-0.78,0.64-1.43,1.12-1.97c0.48-0.53,1.04-0.94,1.7-1.21
			c0.65-0.28,1.36-0.41,2.12-0.41c1.73,0,3.05,0.55,3.96,1.64C193.36,61.39,193.82,62.9,193.82,64.84z M191.83,64.91
			c0-0.59-0.04-1.17-0.14-1.73c-0.09-0.56-0.26-1.04-0.5-1.46c-0.24-0.42-0.58-0.76-1.01-1.02c-0.43-0.26-0.97-0.39-1.64-0.39
			c-0.58,0-1.08,0.12-1.51,0.36c-0.43,0.24-0.78,0.57-1.05,0.98c-0.27,0.41-0.48,0.89-0.62,1.44c-0.14,0.55-0.21,1.13-0.21,1.74
			c0,0.68,0.05,1.31,0.16,1.88c0.11,0.57,0.29,1.06,0.55,1.46c0.26,0.4,0.6,0.72,1.02,0.95c0.42,0.23,0.95,0.34,1.59,0.34
			c0.64,0,1.18-0.13,1.61-0.39c0.44-0.26,0.78-0.6,1.04-1.03c0.26-0.43,0.44-0.91,0.55-1.46C191.77,66.05,191.83,65.48,191.83,64.91
			z"/>
		<path fill="#B71828" d="M196.31,69.27c0.38-0.43,0.66-0.92,0.85-1.49c0.18-0.56,0.34-1.29,0.48-2.19l0.85-5.6
			c0.04-0.4,0.18-0.68,0.41-0.85c0.23-0.17,0.56-0.25,1-0.25h5.64c0.5,0,0.82,0.1,0.94,0.31c0.12,0.2,0.18,0.47,0.18,0.79v9.3
			l0.66,0.04c0.32,0.03,0.51,0.13,0.58,0.31c0.07,0.18,0.09,0.33,0.08,0.47l-0.25,4.04c0,0.2-0.08,0.3-0.25,0.3h-1.26
			c-0.14,0-0.21-0.1-0.23-0.3l-0.14-3.27h-8.64l-0.23,3.34c0,0.11-0.03,0.18-0.08,0.22c-0.05,0.04-0.11,0.06-0.17,0.06h-1.26
			c-0.06,0-0.11-0.02-0.15-0.05c-0.04-0.03-0.07-0.11-0.08-0.23L195,70.14c-0.02-0.18,0.02-0.35,0.11-0.51
			c0.09-0.16,0.29-0.25,0.59-0.29L196.31,69.27z M204.67,60.63h-4.46l-0.55,3.78c-0.12,0.82-0.22,1.5-0.31,2.04
			c-0.09,0.54-0.17,0.98-0.25,1.33c-0.08,0.35-0.18,0.64-0.28,0.86c-0.11,0.22-0.23,0.43-0.37,0.63h6.22V60.63z"/>
		<path fill="#B71828" d="M215.06,58.64c0.87,0,1.62,0.12,2.25,0.36c0.63,0.24,1.15,0.59,1.55,1.04c0.4,0.45,0.7,0.98,0.9,1.6
			c0.2,0.62,0.3,1.3,0.3,2.04c0,0.37-0.05,0.66-0.14,0.89c-0.09,0.23-0.22,0.41-0.38,0.54c-0.16,0.13-0.34,0.22-0.55,0.28
			c-0.2,0.05-0.42,0.08-0.65,0.08h-6.58c0,0.72,0.1,1.32,0.3,1.83c0.2,0.5,0.46,0.91,0.79,1.22c0.33,0.31,0.71,0.54,1.15,0.67
			c0.44,0.14,0.91,0.2,1.41,0.2c0.5,0,1-0.06,1.49-0.19c0.49-0.13,0.89-0.28,1.22-0.45c0.18-0.11,0.33-0.07,0.44,0.12l0.48,0.96
			c0.11,0.21,0.06,0.36-0.14,0.46c-0.55,0.33-1.14,0.56-1.77,0.67c-0.63,0.11-1.25,0.17-1.86,0.17c-0.85,0-1.62-0.12-2.3-0.36
			c-0.68-0.24-1.25-0.62-1.73-1.12c-0.47-0.5-0.83-1.14-1.08-1.92c-0.25-0.78-0.38-1.7-0.38-2.79c0-1.01,0.13-1.9,0.4-2.68
			c0.27-0.78,0.64-1.44,1.11-1.98c0.47-0.53,1.03-0.94,1.67-1.22C213.6,58.78,214.3,58.64,215.06,58.64z M218.19,63.88
			c0-0.47-0.05-0.93-0.14-1.36c-0.09-0.43-0.26-0.81-0.49-1.14c-0.24-0.33-0.56-0.59-0.96-0.78c-0.41-0.19-0.91-0.28-1.52-0.28
			c-0.51,0-0.95,0.1-1.34,0.3c-0.39,0.2-0.72,0.46-0.99,0.79c-0.27,0.33-0.48,0.7-0.63,1.13c-0.15,0.43-0.25,0.88-0.28,1.35H218.19z
			"/>
		<path fill="#B71828" d="M222.53,59.24c0-0.15,0.03-0.25,0.09-0.3c0.06-0.04,0.15-0.07,0.28-0.07h1.25c0.14,0,0.23,0.02,0.29,0.07
			c0.05,0.05,0.08,0.14,0.08,0.3v8.82h0.09c0.36-0.58,0.7-1.11,0.99-1.59c0.3-0.48,0.63-0.99,1.01-1.54l3.44-5.32
			c0.15-0.26,0.3-0.44,0.43-0.55c0.14-0.11,0.36-0.16,0.66-0.16h0.59c0.26,0,0.47,0.08,0.65,0.23c0.17,0.15,0.26,0.38,0.26,0.68
			v10.76c0,0.14-0.03,0.22-0.08,0.26c-0.05,0.04-0.15,0.06-0.28,0.06h-1.26c-0.12,0-0.21-0.02-0.28-0.06
			c-0.06-0.04-0.09-0.12-0.09-0.26v-8.73h-0.14c-0.18,0.27-0.35,0.53-0.49,0.77c-0.15,0.24-0.29,0.47-0.43,0.71
			c-0.14,0.24-0.29,0.48-0.45,0.72c-0.15,0.24-0.32,0.5-0.5,0.78l-3.56,5.39c-0.17,0.26-0.33,0.44-0.49,0.54
			c-0.16,0.1-0.37,0.15-0.63,0.15h-0.53c-0.27,0-0.49-0.07-0.66-0.22c-0.17-0.14-0.25-0.37-0.25-0.67V59.24z M227.47,57.69
			c-0.76,0-1.45-0.24-2.08-0.71c-0.62-0.47-1.16-1.04-1.6-1.69c-0.03-0.04-0.06-0.11-0.08-0.18c-0.02-0.08,0.03-0.16,0.15-0.25
			l0.44-0.39c0.14-0.08,0.23-0.1,0.27-0.08c0.05,0.02,0.12,0.08,0.23,0.17c0.44,0.49,0.9,0.87,1.38,1.14
			c0.48,0.28,0.94,0.41,1.38,0.41c0.33,0,0.72-0.1,1.17-0.31c0.44-0.21,0.97-0.64,1.6-1.31c0.12-0.11,0.21-0.16,0.25-0.15
			c0.05,0.01,0.11,0.04,0.18,0.08l0.46,0.37c0.12,0.12,0.17,0.22,0.15,0.3c-0.02,0.08-0.05,0.14-0.08,0.18
			c-0.64,0.87-1.29,1.49-1.95,1.86C228.67,57.5,228.05,57.69,227.47,57.69z"/>
		<path fill="#B71828" d="M240.65,69.4c0.52,0,1.02-0.07,1.52-0.2c0.49-0.14,0.91-0.29,1.25-0.46c0.14-0.08,0.24-0.09,0.3-0.06
			c0.06,0.04,0.12,0.09,0.16,0.17l0.46,0.96c0.12,0.2,0.08,0.36-0.11,0.49c-0.58,0.32-1.21,0.54-1.9,0.66
			c-0.69,0.12-1.34,0.17-1.97,0.17c-1.68,0-2.95-0.51-3.84-1.54c-0.89-1.03-1.33-2.55-1.33-4.58c0-0.97,0.13-1.85,0.38-2.64
			c0.25-0.78,0.61-1.45,1.07-2.01c0.46-0.56,1.03-0.98,1.7-1.28c0.67-0.3,1.42-0.44,2.26-0.44c0.61,0,1.19,0.06,1.75,0.18
			c0.56,0.12,1.09,0.33,1.61,0.62c0.21,0.12,0.26,0.28,0.14,0.48l-0.48,0.94c-0.04,0.09-0.09,0.16-0.15,0.19
			c-0.05,0.04-0.15,0.02-0.28-0.06c-0.37-0.17-0.76-0.3-1.19-0.41c-0.43-0.11-0.88-0.16-1.37-0.16c-0.61,0-1.13,0.13-1.57,0.38
			c-0.44,0.25-0.79,0.59-1.07,1.02c-0.28,0.43-0.49,0.91-0.62,1.46c-0.13,0.55-0.19,1.12-0.19,1.73s0.05,1.18,0.16,1.71
			c0.11,0.53,0.29,1,0.56,1.4c0.27,0.4,0.62,0.72,1.06,0.95C239.4,69.29,239.97,69.4,240.65,69.4z"/>
		<path fill="#B71828" d="M251.12,70.81c-0.06,0.05-0.17,0.08-0.32,0.08h-1.12c-0.15,0-0.26-0.03-0.32-0.08
			c-0.06-0.05-0.09-0.16-0.09-0.33v-9.85h-3.54c-0.17,0-0.28-0.04-0.33-0.1c-0.05-0.07-0.08-0.17-0.08-0.29v-0.9
			c0-0.14,0.03-0.25,0.08-0.32c0.05-0.08,0.16-0.12,0.33-0.12h9.18c0.18,0,0.3,0.04,0.34,0.12c0.05,0.08,0.07,0.19,0.07,0.32v0.9
			c0,0.12-0.02,0.22-0.07,0.29c-0.04,0.07-0.16,0.1-0.34,0.1h-3.7v9.85C251.21,70.65,251.18,70.76,251.12,70.81z"/>
		<path fill="#B71828" d="M265.14,64.45c0.73,0.24,1.25,0.64,1.55,1.18c0.3,0.54,0.46,1.12,0.46,1.75c0,0.53-0.1,1.01-0.31,1.44
			c-0.2,0.43-0.48,0.8-0.83,1.11c-0.35,0.31-0.77,0.55-1.25,0.72c-0.48,0.17-1,0.25-1.57,0.25h-5.21c-0.32,0-0.56-0.08-0.72-0.25
			c-0.16-0.17-0.24-0.39-0.24-0.66V59.81c0-0.29,0.08-0.51,0.25-0.67c0.17-0.16,0.4-0.24,0.71-0.24h4.98c1.07,0,1.94,0.24,2.63,0.72
			c0.68,0.48,1.03,1.24,1.03,2.27c0,0.52-0.13,1-0.4,1.44c-0.27,0.44-0.62,0.77-1.06,0.98L265.14,64.45z M259.02,63.72h3.86
			c0.15,0,0.33-0.03,0.54-0.08c0.21-0.05,0.39-0.14,0.56-0.26c0.17-0.12,0.31-0.28,0.44-0.49c0.12-0.2,0.18-0.47,0.18-0.78
			c0-0.41-0.15-0.75-0.43-1.04c-0.29-0.29-0.68-0.43-1.17-0.43h-3.98V63.72z M265.1,67.26c0-0.59-0.19-1.07-0.58-1.44
			c-0.39-0.37-0.97-0.55-1.75-0.55h-3.75v4.07h3.72c0.49,0,0.88-0.07,1.19-0.2c0.3-0.14,0.54-0.31,0.72-0.52
			c0.17-0.2,0.29-0.43,0.35-0.67C265.07,67.7,265.1,67.47,265.1,67.26z"/>
		<path fill="#B71828" d="M269.67,59.24c0-0.15,0.03-0.25,0.09-0.3c0.06-0.04,0.15-0.07,0.28-0.07h1.25c0.14,0,0.23,0.02,0.29,0.07
			c0.05,0.05,0.08,0.14,0.08,0.3v8.82h0.09c0.36-0.58,0.7-1.11,0.99-1.59c0.3-0.48,0.63-0.99,1.01-1.54l3.44-5.32
			c0.15-0.26,0.3-0.44,0.43-0.55c0.14-0.11,0.36-0.16,0.66-0.16h0.59c0.26,0,0.47,0.08,0.65,0.23c0.17,0.15,0.26,0.38,0.26,0.68
			v10.76c0,0.14-0.03,0.22-0.08,0.26c-0.05,0.04-0.15,0.06-0.28,0.06h-1.26c-0.12,0-0.21-0.02-0.28-0.06
			c-0.06-0.04-0.09-0.12-0.09-0.26v-8.73h-0.14c-0.18,0.27-0.35,0.53-0.49,0.77c-0.14,0.24-0.29,0.47-0.43,0.71
			c-0.15,0.24-0.29,0.48-0.45,0.72c-0.15,0.24-0.32,0.5-0.5,0.78l-3.56,5.39c-0.17,0.26-0.33,0.44-0.49,0.54
			c-0.16,0.1-0.37,0.15-0.63,0.15h-0.53c-0.27,0-0.49-0.07-0.66-0.22c-0.17-0.14-0.25-0.37-0.25-0.67V59.24z"/>
		<path fill="#B71828" d="M291.23,58.9c0.28,0,0.51,0.08,0.7,0.23c0.19,0.15,0.29,0.39,0.29,0.71v10.76c0,0.14-0.04,0.22-0.12,0.25
			c-0.08,0.03-0.17,0.05-0.3,0.05h-1.21c-0.14,0-0.23-0.02-0.28-0.06c-0.05-0.04-0.08-0.12-0.08-0.26v-4.59h-2.91
			c-0.61,0-1.11,0.09-1.51,0.29c-0.4,0.19-0.71,0.63-0.92,1.31l-0.91,3.02c-0.03,0.12-0.09,0.2-0.17,0.24
			c-0.09,0.04-0.17,0.06-0.24,0.06h-1.35c-0.12,0-0.2-0.02-0.24-0.07c-0.04-0.04-0.06-0.1-0.06-0.16v-0.14l1.05-3.27
			c0.12-0.41,0.3-0.78,0.53-1.11c0.23-0.33,0.61-0.56,1.14-0.7c-0.01,0-0.02-0.01-0.02-0.02c-0.75-0.21-1.29-0.59-1.62-1.14
			c-0.32-0.55-0.49-1.17-0.49-1.85c0-0.5,0.09-0.97,0.26-1.39c0.17-0.43,0.43-0.8,0.78-1.12c0.34-0.32,0.76-0.57,1.25-0.75
			c0.49-0.18,1.04-0.27,1.67-0.27H291.23z M286.61,60.59c-0.39,0-0.72,0.06-0.99,0.17c-0.27,0.12-0.48,0.26-0.65,0.45
			c-0.17,0.18-0.29,0.38-0.36,0.61c-0.07,0.22-0.11,0.44-0.11,0.65c0,0.53,0.17,0.99,0.5,1.36c0.33,0.37,0.92,0.56,1.77,0.56h3.46
			v-3.79H286.61z"/>
	</g>
</g>
</svg>
