<svg width="33" height="33" viewBox="0 0 33 33" fill="none" xmlns="http://www.w3.org/2000/svg">
<path d="M30.25 23.265V27.39C30.2515 27.7729 30.1731 28.152 30.0197 28.5029C29.8663 28.8537 29.6413 29.1687 29.3591 29.4276C29.0769 29.6865 28.7438 29.8835 28.381 30.0062C28.0182 30.1289 27.6339 30.1745 27.2525 30.14C23.0214 29.6803 18.9571 28.2345 15.3862 25.9188C12.064 23.8077 9.24731 20.991 7.13622 17.6688C4.81244 14.0817 3.3663 9.99763 2.91497 5.74751C2.88061 5.36728 2.9258 4.98406 3.04766 4.62224C3.16952 4.26043 3.36538 3.92796 3.62277 3.64599C3.88017 3.36402 4.19345 3.13874 4.54268 2.98448C4.89191 2.83022 5.26944 2.75037 5.65122 2.75001H9.77622C10.4435 2.74344 11.0904 2.97974 11.5964 3.41487C12.1023 3.84999 12.4328 4.45425 12.5262 5.11501C12.7003 6.4351 13.0232 7.73126 13.4887 8.97876C13.6737 9.47091 13.7138 10.0058 13.6041 10.52C13.4944 11.0342 13.2397 11.5062 12.87 11.88L11.1237 13.6263C13.0811 17.0686 15.9313 19.9189 19.3737 21.8763L21.12 20.13C21.4938 19.7603 21.9658 19.5056 22.48 19.3959C22.9942 19.2862 23.5291 19.3263 24.0212 19.5113C25.2687 19.9768 26.5649 20.2997 27.885 20.4738C28.5529 20.568 29.1629 20.9044 29.5989 21.4191C30.035 21.9337 30.2667 22.5907 30.25 23.265Z" stroke="#3C3B3B" stroke-width="2" stroke-linecap="round" stroke-linejoin="round"/>
</svg>
