<?xml version="1.0" encoding="utf-8"?>
<!-- Generator: Adobe Illustrator 24.1.3, SVG Export Plug-In . SVG Version: 6.00 Build 0)  -->
<svg version="1.1" id="Слой_1" xmlns="http://www.w3.org/2000/svg" xmlns:xlink="http://www.w3.org/1999/xlink" x="0px" y="0px"
	 viewBox="0 0 102.05 100.83" enable-background="new 0 0 102.05 100.83" xml:space="preserve">
<g>
	<path fill="#B71828" d="M95.19,28.78c0.64-1.12,1.28-2.23,1.93-3.34c-9.28-13.17-24.6-21.79-41.9-21.79C26.98,3.66,4,26.64,4,54.89
		c0,8.89,2.29,17.26,6.29,24.55c0.84-0.85,1.7-1.69,2.56-2.52c-3.44-6.6-5.39-14.09-5.39-22.03c0-26.34,21.43-47.77,47.77-47.77
		C71.94,7.12,86.66,15.75,95.19,28.78z"/>
	<circle fill="#B71828" cx="55.63" cy="55.29" r="43.62"/>
	<g>
		<path fill-rule="evenodd" clip-rule="evenodd" fill="#FFFFFF" d="M85.62,46.95v-0.02l-0.22-0.22c-0.86-0.86-2.01-1.34-3.23-1.34
			h-12.6V39.6c0-1.72-0.67-3.35-1.9-4.57c-1.22-1.22-2.85-1.9-4.57-1.9H32.67c-1.72,0-3.35,0.67-4.57,1.9l-0.31,0.32v0.02
			c-1.03,1.18-1.59,2.66-1.59,4.23v20.35c0,1.72,0.67,3.34,1.9,4.57c1.23,1.22,2.85,1.9,4.56,1.9h15.68v7.64l4.79,1.28l4.45-7.71
			l0.13,0.11c0.83,0.73,1.88,1.12,2.99,1.12h3.4l3.64,6.3l3.38-0.9v-5.39h11.07c1.21,0,2.35-0.48,3.22-1.34
			c0.87-0.87,1.34-2.02,1.34-3.23V49.94C86.74,48.83,86.34,47.78,85.62,46.95z M52.12,72.88l-1.65-0.44V64.3H32.67
			c-1.15,0-2.24-0.45-3.07-1.28c-0.83-0.83-1.28-1.92-1.28-3.07V39.6c0-1.16,0.45-2.24,1.28-3.07l0.12-0.13
			c0.81-0.75,1.85-1.16,2.95-1.16H63.1c1.16,0,2.25,0.45,3.08,1.28c0.82,0.82,1.28,1.92,1.28,3.08v5.78h-4.21h-2.11H60.7
			c-1.22,0-2.36,0.48-3.23,1.34c-0.86,0.86-1.34,2.01-1.34,3.23V64.3v0c0,0.44,0.08,0.85,0.21,1.26L52.12,72.88z M85.25,64.3
			c0,0.81-0.32,1.58-0.9,2.17c-0.59,0.58-1.36,0.9-2.17,0.9H69.62v5.74l-1.17,0.31l-3.49-6.05H60.7c-0.81,0-1.58-0.32-2.17-0.9
			l-0.1-0.1c-0.05-0.05-0.08-0.11-0.12-0.16c-0.43-0.54-0.68-1.21-0.68-1.91v-0.08V49.94c0-0.82,0.32-1.59,0.9-2.17
			c0.58-0.58,1.35-0.9,2.17-0.9h0.44h2.11h18.93c0.78,0,1.51,0.29,2.08,0.82l0.09,0.09c0.58,0.58,0.9,1.35,0.9,2.17V64.3z"/>
		<rect x="34.04" y="53.89" fill-rule="evenodd" clip-rule="evenodd" fill="#FFFFFF" width="17.41" height="2.29"/>
		<rect x="31.48" y="46.91" fill-rule="evenodd" clip-rule="evenodd" fill="#FFFFFF" width="17.41" height="2.29"/>
		<rect x="38.72" y="41.55" fill-rule="evenodd" clip-rule="evenodd" fill="#FFFFFF" width="17.41" height="2.29"/>
		<rect x="62.9" y="61.21" fill-rule="evenodd" clip-rule="evenodd" fill="#FFFFFF" width="19.57" height="2.09"/>
		<rect x="66.53" y="55.82" fill-rule="evenodd" clip-rule="evenodd" fill="#FFFFFF" width="15.94" height="2.09"/>
		<rect x="60.81" y="50.43" fill-rule="evenodd" clip-rule="evenodd" fill="#FFFFFF" width="15.94" height="2.09"/>
	</g>
	<text transform="matrix(1 0 0 1 -8.2449 118.717)" fill="#FFFFFF" font-family="'SegoeUI'" font-size="13.7254px"> Посоветоваться </text>
</g>
</svg>
