<?xml version="1.0" encoding="utf-8"?>
<!-- Generator: Adobe Illustrator 24.1.3, SVG Export Plug-In . SVG Version: 6.00 Build 0)  -->
<svg version="1.1" id="Слой_1" xmlns="http://www.w3.org/2000/svg" xmlns:xlink="http://www.w3.org/1999/xlink" x="0px" y="0px"
	 viewBox="0 0 101.38 104.13" enable-background="new 0 0 101.38 104.13" xml:space="preserve">
<g>
	<path fill="#FFFFFF" d="M43.69,99.49c0.49,1.19,0.97,2.38,1.45,3.57c16.09,0.75,32.3-6.07,42.91-19.73
		c17.32-22.31,13.27-54.56-9.04-71.88C71.98,6,63.97,2.67,55.76,1.36c0.16,1.19,0.3,2.38,0.42,3.57c7.32,1.33,14.44,4.38,20.71,9.25
		c20.8,16.15,24.59,46.22,8.43,67.03C75.07,94.41,59.22,100.74,43.69,99.49z"/>
	<circle fill="#B71828" cx="46.66" cy="52.39" r="43.62"/>
	<path fill="#FFFFFF" d="M25.67,72.55l-0.22-0.66c-3.94-11.99-1.34-18.77,8.42-21.98c2.81-0.92,5.89-1.39,8.87-1.84
		c2.52-0.38,5.05-0.77,7.01-1.33c3.41-0.98,6.36-2.83,5.11-9.53l-5.43,1.32l5.26-17.87l12.85,13.49l-4.69,1.14
		c2.93,13.5-4.23,17.42-10.83,19.33c-2.66,0.77-5.36,1.18-7.97,1.57c-2.73,0.41-5.49,0.83-7.61,1.53
		c-3.12,1.03-5.94,3.21-3.17,11.65l0.22,0.66L25.67,72.55z M55.93,35.51l0.15,0.7c1.89,8.57-2.49,10.88-5.94,11.87
		c-2.05,0.59-4.62,0.98-7.11,1.36c-3,0.45-6.02,0.91-8.71,1.8c-6.23,2.04-11.98,5.98-7.75,19.56l5.15-1.67
		c-2.18-7.12-0.85-11.06,4.27-12.74c2.23-0.74,5.05-1.16,7.77-1.57c2.64-0.4,5.29-0.8,7.86-1.54c6.5-1.87,12.74-5.52,9.71-18.35
		l-0.16-0.68l3.69-0.89l-9.52-9.99L51.44,36.6L55.93,35.51z"/>
	<path fill-rule="evenodd" clip-rule="evenodd" fill="#FFFFFF" d="M18.51,39.06l-0.81,2.43c1.21,0.4,2.26,0.96,3.19,1.65
		c-1.01,1.27-1.87,2.65-2.65,4.1l2.26,1.22c0.69-1.28,1.43-2.48,2.29-3.58c1.06,1.18,1.94,2.56,2.71,4.05l2.27-1.19
		c-0.91-1.75-1.96-3.38-3.26-4.79c1.17-1.12,2.55-2.09,4.19-2.87l-1.09-2.32c-1.97,0.92-3.6,2.09-5,3.46
		C21.43,40.32,20.08,39.58,18.51,39.06L18.51,39.06z"/>
	<path fill="#FFFFFF" d="M62.68,66.67c-1.74,0-3.38-0.68-4.61-1.91c-1.23-1.23-1.91-2.87-1.91-4.61s0.68-3.38,1.91-4.61
		c1.23-1.23,2.87-1.91,4.61-1.91c1.74,0,3.38,0.68,4.62,1.91c1.23,1.23,1.91,2.87,1.91,4.61c0,1.75-0.68,3.38-1.91,4.61
		C66.06,65.99,64.42,66.67,62.68,66.67z M62.68,55.64c-1.2,0-2.33,0.47-3.18,1.32c-0.85,0.85-1.32,1.98-1.32,3.18
		c0,1.2,0.47,2.33,1.32,3.18c0.85,0.85,1.98,1.32,3.18,1.32s2.33-0.47,3.18-1.32c0.85-0.85,1.32-1.98,1.32-3.18
		c0-1.2-0.47-2.33-1.32-3.18C65.01,56.11,63.88,55.64,62.68,55.64z"/>
	<path fill-rule="evenodd" clip-rule="evenodd" fill="#FFFFFF" d="M49.56,61.17l-2.79-0.49c-0.24,1.38-0.68,2.61-1.27,3.73
		c-1.54-0.89-3.18-1.6-4.89-2.22l-0.95,2.65c1.49,0.54,2.92,1.16,4.26,1.91c-1.11,1.34-2.47,2.52-3.96,3.6l1.66,2.29
		c1.76-1.28,3.36-2.68,4.68-4.32c1.41,1.09,2.69,2.43,3.79,4.09l2.36-1.56c-1.32-2-2.86-3.58-4.57-4.88
		C48.66,64.54,49.25,62.96,49.56,61.17L49.56,61.17z"/>
	<g>
		<path fill="#FFFFFF" d="M40.51,44.14c-1.74,0-3.38-0.68-4.62-1.91c-1.23-1.23-1.91-2.87-1.91-4.62c0-1.74,0.68-3.38,1.91-4.61
			c1.23-1.23,2.87-1.91,4.62-1.91c1.74,0,3.38,0.68,4.62,1.91c1.23,1.23,1.91,2.87,1.91,4.61c0,1.74-0.68,3.38-1.91,4.62
			C43.89,43.46,42.25,44.14,40.51,44.14z M40.51,33.11c-1.2,0-2.33,0.47-3.18,1.32c-0.85,0.85-1.32,1.98-1.32,3.18
			c0,1.2,0.47,2.33,1.32,3.18c0.85,0.85,1.98,1.32,3.18,1.32c1.2,0,2.33-0.47,3.18-1.32c0.85-0.85,1.32-1.98,1.32-3.18
			c0-1.2-0.47-2.33-1.32-3.18C42.84,33.58,41.71,33.11,40.51,33.11z"/>
	</g>
	<text transform="matrix(1 0 0 1 0.9871 127.467)"><tspan x="0" y="0" fill="#FFFFFF" font-family="'SegoeUI'" font-size="13.7254px">Сбор справок </tspan><tspan x="0.1" y="16.47" fill="#FFFFFF" font-family="'SegoeUI'" font-size="13.7254px">(ГАИ или ОВД) </tspan></text>
</g>
</svg>
