<?xml version="1.0" encoding="utf-8"?>
<!-- Generator: Adobe Illustrator 24.1.3, SVG Export Plug-In . SVG Version: 6.00 Build 0)  -->
<svg version="1.1" id="Слой_1" xmlns="http://www.w3.org/2000/svg" xmlns:xlink="http://www.w3.org/1999/xlink" x="0px" y="0px"
	 viewBox="0 0 100.13 97.06" enable-background="new 0 0 100.13 97.06" xml:space="preserve">
<g>
	<path fill="#FFFFFF" d="M88.34,77.33c1.28,0.12,2.56,0.26,3.84,0.39c8.21-13.86,9.8-31.37,2.72-47.15
		C83.32,4.8,52.94-6.75,27.17,4.82c-8.11,3.64-14.81,9.15-19.82,15.8c1.12,0.42,2.24,0.85,3.35,1.31
		c4.61-5.84,10.64-10.69,17.89-13.94C52.62-2.81,80.94,7.96,91.73,31.99C98.57,47.23,96.73,64.2,88.34,77.33z"/>
	<circle fill="#B71828" cx="48.08" cy="51.13" r="43.62"/>
	<text transform="matrix(1 0 0 1 4.4132 115.032)"><tspan x="0" y="0" fill="#FFFFFF" font-family="'SegoeUI'" font-size="13.7254px">Подготовка </tspan><tspan x="-33.31" y="16.47" fill="#FFFFFF" font-family="'SegoeUI'" font-size="13.7254px">документов для суда</tspan><tspan x="42.47" y="32.94" fill="#FFFFFF" font-family="'SegoeUI'" font-size="13.7254px">  </tspan></text>
	<path fill-rule="evenodd" clip-rule="evenodd" fill="#FFFFFF" d="M18.05,31.04h26.02h1.52v1.54v33.88v1.54h-1.52H25.71h-0.5
		l-0.41-0.31l-7.66-5.78l-0.62-0.47v-0.77v-28.1v-1.54H18.05L18.05,31.04z M19.58,59.11l4.64-1.74l0.66-0.25l0.19,0.69l2,7.11h15.49
		V34.13H19.58V59.11L19.58,59.11z M25.57,64.45L24,58.87l-3.89,1.45L25.57,64.45L25.57,64.45z M23.41,50.94v1.29h15.55v-1.29H23.41
		L23.41,50.94z M23.41,47.08v1.29h15.55v-1.29H23.41L23.41,47.08z M23.41,42.88v1.29h15.55v-1.29H23.41L23.41,42.88z M23.41,39.02
		v1.29h15.55v-1.29H23.41z"/>
	<path fill-rule="evenodd" clip-rule="evenodd" fill="#FFFFFF" d="M40.59,66.03h4.55V61.7h24.49v4.34h4.97v7.85H40.59V66.03
		L40.59,66.03z M54.49,54.32l1.46-5.45l-0.73-0.2l0.31-1.17l-1.07-0.31l0.62-2.29l1.08,0.26l0.32-1.19l0.73,0.19l1.64-6.11
		l-0.73-0.19l0.4-1.5l7.8,2.09l-0.4,1.5l-0.62-0.17l-1.64,6.11l0.63,0.17l-0.27,0.99l17.32,4.18l-0.96,3.6l-17.09-5.04l-0.26,0.97
		l-0.62-0.17l-1.46,5.46l0.62,0.17l-0.4,1.5l-7.8-2.09l0.4-1.5L54.49,54.32z"/>
	<path fill="none" stroke="#1F1E21" stroke-width="2" stroke-miterlimit="10" d="M29.41,85.78"/>
</g>
</svg>
